<?xml version="1.0" encoding="UTF-8"?>
<svg id="Layer_2" data-name="Layer 2" xmlns="http://www.w3.org/2000/svg" viewBox="0 0 144.02 75.68">
  <defs>
    <style>
      .cls-1, .cls-2 {
        fill: #995c54;
      }

      .cls-2 {
        fill-rule: evenodd;
      }
    </style>
  </defs>
  <g id="Logotype">
    <g>
      <g>
        <path class="cls-1" d="m0,60.67s.02-.07.05-.09c.55-.21.62-.71.62-1.24v-11.68c0-.53-.07-1.03-.62-1.24-.02-.02-.05-.05-.05-.09s.05-.09.09-.09h2.62s.07.05.07.09-.02.07-.05.09c-.55.21-.62.71-.62,1.24v11.68c0,.53.07,1.03.62,1.24.02.02.05.05.05.09s-.02.09-.07.09H.09s-.09-.05-.09-.09Z"/>
        <path class="cls-1" d="m4.94,59.65l.55-.62s.12-.05.16.02c.25.37,1.31,1.63,3.15,1.63,1.93,0,2.69-1.36,2.69-2.28,0-2.46-6.21-1.56-6.21-5.4,0-1.68,1.56-2.81,3.59-2.81,1.82,0,2.9.9,3.2,1.17.05.07.05.14,0,.18l-.48.64s-.14.02-.16-.05c-.18-.44-.85-1.72-2.53-1.72-1.4,0-2.58.76-2.58,2.25,0,2.94,6.21,2.05,6.21,5.33,0,2.21-2.55,2.9-3.75,2.9-2.07,0-3.45-.8-3.84-1.08-.07-.05-.07-.14,0-.18Z"/>
        <path class="cls-1" d="m23.24,60.76h-1.56c-.07,0-.14-.07-.14-.14v-1.26c0-.07-.07-.09-.09-.05-.76.9-1.93,1.61-3.29,1.61-1.84,0-3.82-.69-3.82-2.51,0-2.9,3.73-4.05,7.13-4.12.05,0,.07-.02.07-.07v-.74c0-1.89-.71-3.06-2.64-3.06-2.14,0-2.39,1.93-2.8,2.85-.07.14-.23.18-.37.11l-.87-.53c-.12-.07-.14-.23-.07-.34.67-1.15,2.23-2.32,4.12-2.32,1.66,0,3.93.78,3.93,3.29v6.67c0,.3.25.34.41.44.05.05.05.11,0,.16Zm-1.7-6.16s-.02-.07-.07-.07c-2.9.09-5.7,1.2-5.7,3.84,0,1.33.97,2.32,2.39,2.32,1.77,0,2.99-1.68,3.38-3.43v-2.67Z"/>
        <path class="cls-1" d="m35.69,55.56c0,3.22-2.32,5.33-5.17,5.33s-5.17-2.12-5.17-5.33,2.32-5.36,5.17-5.36,5.17,2.12,5.17,5.36Zm-1.43,0c0-3.1-1.68-5.13-3.75-5.13s-3.75,2.02-3.75,5.13,1.68,5.1,3.75,5.1,3.75-2,3.75-5.1Z"/>
        <path class="cls-1" d="m37.65,60.62s.02-.07.05-.09c.55-.21.62-.71.62-1.24v-7.45c0-.37-.23-.57-.39-.67-.07-.05-.07-.11,0-.14l1.54-.85c.07-.02.14.02.14.09v1.89s.07.02.09,0c.51-.64,2.14-1.95,3.33-1.95s1.93.57,1.98.78c.02.05,0,.07-.02.11l-.67,1.38h-.05s-.39-1.61-1.68-1.61c-1.36,0-2.55,1.13-2.94,1.68-.02.02-.05.09-.05.14v6.62c0,.51.07,1.01.62,1.22.02.02.05.05.05.09s-.02.09-.07.09h-2.46s-.09-.05-.09-.09Z"/>
        <path class="cls-1" d="m55.31,60.76h-1.56c-.07,0-.14-.07-.14-.14v-1.26c0-.07-.07-.09-.09-.05-.76.9-1.93,1.61-3.29,1.61-1.84,0-3.82-.69-3.82-2.51,0-2.9,3.73-4.05,7.13-4.12.05,0,.07-.02.07-.07v-.74c0-1.89-.71-3.06-2.64-3.06-2.14,0-2.39,1.93-2.8,2.85-.07.14-.23.18-.37.11l-.87-.53c-.12-.07-.14-.23-.07-.34.67-1.15,2.23-2.32,4.12-2.32,1.66,0,3.93.78,3.93,3.29v6.67c0,.3.25.34.41.44.05.05.05.11,0,.16Zm-1.7-6.16s-.02-.07-.07-.07c-2.9.09-5.7,1.2-5.7,3.84,0,1.33.97,2.32,2.39,2.32,1.77,0,2.99-1.68,3.38-3.43v-2.67Z"/>
        <path class="cls-1" d="m69.52,60.83c-2.85,0-4.74-1.08-5.27-1.45-.09-.07-.09-.21-.02-.28l.87-1.06c.07-.07.18-.05.23.02.35.51,1.68,2.51,4.23,2.51s3.68-1.89,3.68-3.15c0-3.38-8.58-2.28-8.58-7.43,0-2.32,2.18-3.84,4.97-3.84,2.51,0,4,1.22,4.37,1.61.07.07.07.16.02.23l-.8,1.1c-.07.07-.21.05-.23-.05-.25-.62-1.03-2.64-3.33-2.64-1.91,0-3.56,1.1-3.56,3.13,0,4.05,8.55,2.94,8.55,7.34,0,3.04-3.5,3.96-5.13,3.96Z"/>
        <path class="cls-1" d="m85.48,60.76h-1.56c-.07,0-.14-.07-.14-.14v-1.26c0-.07-.07-.09-.09-.05-.76.9-1.93,1.61-3.29,1.61-1.84,0-3.82-.69-3.82-2.51,0-2.9,3.73-4.05,7.13-4.12.05,0,.07-.02.07-.07v-.74c0-1.89-.71-3.06-2.64-3.06-2.14,0-2.39,1.93-2.8,2.85-.07.14-.23.18-.37.11l-.87-.53c-.12-.07-.14-.23-.07-.34.67-1.15,2.23-2.32,4.12-2.32,1.66,0,3.93.78,3.93,3.29v6.67c0,.3.25.34.41.44.05.05.05.11,0,.16Zm-1.7-6.16s-.02-.07-.07-.07c-2.9.09-5.7,1.2-5.7,3.84,0,1.33.97,2.32,2.39,2.32,1.77,0,2.99-1.68,3.38-3.43v-2.67Z"/>
        <path class="cls-1" d="m87.63,60.67s.02-.07.05-.09c.55-.21.62-.71.62-1.24v-7.47c0-.34-.23-.55-.39-.64-.07-.05-.07-.11,0-.16l1.54-.83c.07-.05.14,0,.14.09v2.83s.07.05.07.02c.41-.9,1.56-2.97,3.61-2.97,2.18,0,3.47,1.43,3.47,3.22v5.93c.02.53.09,1.01.62,1.22.05.02.05.05.05.09s-.02.09-.07.09h-2.46s-.09-.05-.09-.09.02-.07.05-.09c.58-.21.62-.74.62-1.24v-5.91c0-1.4-.99-2.85-2.37-2.85-1.93,0-3.13,2.58-3.45,3.38-.02.05-.05.11-.05.18v5.2c0,.53.07,1.03.62,1.24.02.02.05.05.05.09s-.02.09-.07.09h-2.46s-.09-.05-.09-.09Z"/>
        <path class="cls-1" d="m104.61,60.9c-2.85,0-5.17-2.12-5.17-5.33s2.32-5.36,5.17-5.36c1.68,0,3.17.74,4.12,1.98.07.11.07.25-.02.34l-.64.76c-.12.14-.34.11-.34-.07,0-1.17-1.47-2.78-3.1-2.78-2.07,0-3.75,2.02-3.75,5.13s2,4.92,4.07,4.92c1.22,0,2.76-.55,3.7-1.7.02-.02.05-.05.09-.05h.05s.05.05.02.07c-.92,1.33-2.46,2.09-4.19,2.09Z"/>
        <path class="cls-1" d="m120.52,60.67s-.02.09-.07.09h-2.46s-.09-.05-.09-.09.02-.07.05-.09c.55-.21.62-.71.62-1.24v-5.91c0-1.4-.99-2.85-2.37-2.85-2,0-3.24,2.81-3.5,3.47v5.29c0,.53.07,1.03.62,1.24.02.02.05.05.05.09s-.02.09-.07.09h-2.46s-.09-.05-.09-.09.02-.07.05-.09c.55-.21.62-.71.62-1.24v-8.6c0-2.62,2.94-4.51,3.89-4.51.07,0,.12.09.07.14l-.46.94c-.02.07-.07.18-.23.18h-.9c-1.13,0-1.08,1.66-1.08,2.09v3.75c.32-.74,1.5-3.13,3.68-3.13s3.47,1.43,3.47,3.22v5.93c0,.53.09,1.01.62,1.22.02.02.05.05.05.09Z"/>
        <path class="cls-1" d="m127.79,60.9c-2.85,0-5.17-2.12-5.17-5.33s2.32-5.36,5.17-5.36,4.21,2.46,4.32,4.32v.07c0,.07-.07.14-.14.14h-7.77c-.07,0-.12.05-.14.11-.02.23-.02.46-.02.71,0,3.1,2,4.92,4.07,4.92,1.22,0,2.76-.55,3.7-1.7.02-.02.05-.05.09-.05h.05s.05.05.02.07c-.92,1.33-2.46,2.09-4.19,2.09Zm-3.66-6.53c-.02.09.05.16.12.16h6.28c.09,0,.16-.09.16-.18-.07-1.33-.55-3.91-2.9-3.91-1.79,0-3.29,1.52-3.66,3.93Z"/>
        <path class="cls-1" d="m133.49,60.76c-.11,0-.18-.14-.11-.21.9-1.31,5.15-7.47,6.83-9.91.07-.09,0-.21-.12-.21h-4.83c-.69,0-1.29,1.47-1.29,1.47-.02.02-.05.02-.07.02h-.02s-.07-.02-.07-.05l.23-1.54c0-.07.07-.14.14-.14h7.63c.09,0,.16.14.12.23-2.07,2.97-4.94,7.13-6.85,9.89-.07.09,0,.21.12.21h5.43c.71,0,1.31-1.47,1.31-1.47,0-.02.02-.02.05-.02h.05s.05.02.05.05l-.23,1.54c0,.07-.05.14-.14.14h-8.21Z"/>
      </g>
      <g>
        <path class="cls-1" d="m30.13,73.56c-.44,0-.85-.07-1.23-.22-.38-.15-.7-.36-.98-.63-.28-.27-.49-.59-.65-.95-.15-.36-.23-.75-.23-1.18s.08-.82.23-1.18c.15-.36.37-.68.65-.95.28-.27.6-.48.97-.63s.78-.22,1.23-.22.85.07,1.22.22.7.36.98.62c.28.27.49.58.64.95.15.36.23.76.23,1.19s-.08.83-.23,1.19c-.15.36-.37.68-.64.95-.28.27-.6.48-.98.62-.37.15-.78.22-1.22.22Zm0-.55c.35,0,.68-.06.98-.18s.56-.29.78-.51.39-.48.51-.77c.12-.29.18-.62.18-.97s-.06-.67-.18-.97c-.12-.29-.29-.55-.51-.77s-.48-.39-.78-.51c-.3-.12-.62-.18-.98-.18s-.68.06-.98.18c-.3.12-.56.29-.79.51-.22.22-.4.48-.52.77s-.18.62-.18.97.06.67.18.96c.12.3.3.55.52.77.22.22.49.39.79.51.3.12.63.18.98.18Z"/>
        <path class="cls-1" d="m37,73.56c-.44,0-.85-.07-1.25-.21s-.71-.33-.92-.55l.24-.48c.21.2.48.37.83.51.35.14.72.21,1.1.21s.67-.05.9-.14.4-.22.51-.37c.11-.16.16-.33.16-.52,0-.23-.07-.41-.2-.55-.13-.14-.3-.25-.51-.33-.21-.08-.45-.15-.7-.21-.26-.06-.51-.13-.77-.2s-.49-.16-.71-.28c-.22-.12-.39-.27-.52-.46-.13-.19-.2-.45-.2-.76,0-.29.08-.56.23-.8s.39-.44.71-.59c.32-.15.73-.22,1.22-.22.33,0,.66.05.98.14.32.09.6.22.84.38l-.21.49c-.25-.17-.52-.29-.8-.37-.28-.08-.55-.12-.82-.12-.35,0-.64.05-.87.14-.23.09-.4.22-.51.38-.11.16-.16.34-.16.54,0,.23.07.41.2.55.13.14.3.25.52.33.21.08.45.15.71.21.26.06.51.13.77.2s.49.17.7.28c.21.11.39.27.52.46.13.19.2.44.2.75,0,.28-.08.55-.23.79s-.39.44-.72.59c-.32.15-.73.22-1.23.22Z"/>
        <path class="cls-1" d="m42.61,73.51v-5.32h-2.06v-.54h4.74v.54h-2.06v5.32h-.62Z"/>
        <path class="cls-1" d="m47.77,72.97h3.52v.54h-4.14v-5.86h4.02v.54h-3.4v4.79Zm-.07-2.7h3.1v.53h-3.1v-.53Zm.92-3.1l1.15-1.04h.8l-1.36,1.04h-.59Z"/>
        <path class="cls-1" d="m55.98,73.56c-.44,0-.85-.07-1.23-.22-.38-.15-.7-.36-.98-.63-.28-.27-.49-.59-.65-.95-.15-.36-.23-.75-.23-1.18s.08-.82.23-1.18c.15-.36.37-.68.65-.95.28-.27.6-.48.97-.63s.78-.22,1.23-.22.85.07,1.22.22.7.36.98.62c.28.27.49.58.64.95.15.36.23.76.23,1.19s-.08.83-.23,1.19c-.15.36-.37.68-.64.95-.28.27-.6.48-.98.62-.37.15-.78.22-1.22.22Zm0-.55c.35,0,.68-.06.98-.18s.56-.29.78-.51.39-.48.51-.77c.12-.29.18-.62.18-.97s-.06-.67-.18-.97c-.12-.29-.29-.55-.51-.77s-.48-.39-.78-.51c-.3-.12-.62-.18-.98-.18s-.68.06-.98.18c-.3.12-.56.29-.79.51-.22.22-.4.48-.52.77s-.18.62-.18.97.06.67.18.96c.12.3.3.55.52.77.22.22.49.39.79.51.3.12.63.18.98.18Z"/>
        <path class="cls-1" d="m61.27,73.51v-5.86h2.19c.5,0,.92.08,1.28.24.36.16.63.39.82.69s.29.66.29,1.08-.1.77-.29,1.07c-.19.3-.47.53-.82.69-.36.16-.78.24-1.28.24h-1.85l.28-.29v2.14h-.62Zm.62-2.09l-.28-.3h1.83c.59,0,1.03-.13,1.33-.38.3-.25.46-.61.46-1.08s-.15-.83-.46-1.09c-.3-.26-.75-.39-1.33-.39h-1.83l.28-.29v3.52Z"/>
        <path class="cls-1" d="m66.78,73.51l2.68-5.86h.61l2.68,5.86h-.65l-2.46-5.5h.25l-2.46,5.5h-.64Zm1.05-1.57l.18-.5h3.41l.18.5h-3.78Z"/>
        <path class="cls-1" d="m75.19,73.51v-5.32h-2.06v-.54h4.74v.54h-2.06v5.32h-.62Z"/>
        <path class="cls-1" d="m80.35,73.51h-.62v-5.86h.62v5.86Zm3.72-2.7h-3.79v-.54h3.79v.54Zm-.06-3.16h.61v5.86h-.61v-5.86Z"/>
        <path class="cls-1" d="m87.85,72.97h3.52v.54h-4.14v-5.86h4.02v.54h-3.4v4.79Zm-.07-2.7h3.1v.53h-3.1v-.53Z"/>
        <path class="cls-1" d="m96.61,73.51v-5.86h2.39c.62,0,1.17.12,1.65.37s.84.59,1.1,1.03c.26.44.39.95.39,1.52s-.13,1.08-.39,1.52-.63.79-1.1,1.03c-.47.25-1.02.37-1.65.37h-2.39Zm.62-.54h1.73c.52,0,.97-.1,1.35-.31.38-.2.68-.49.89-.85.21-.36.32-.77.32-1.24s-.11-.89-.32-1.25c-.21-.36-.51-.64-.89-.84-.38-.2-.83-.31-1.35-.31h-1.73v4.79Z"/>
        <path class="cls-1" d="m104.25,73.55c-.12,0-.23-.04-.31-.13-.09-.09-.13-.2-.13-.33s.04-.24.13-.33c.09-.08.19-.13.31-.13s.23.04.31.13c.09.08.13.19.13.33s-.04.24-.13.33c-.09.09-.19.13-.31.13Z"/>
        <path class="cls-1" d="m109.43,73.56c-.44,0-.85-.07-1.23-.22-.38-.15-.7-.36-.98-.63-.28-.27-.49-.59-.65-.95-.15-.36-.23-.75-.23-1.18s.08-.82.23-1.18c.15-.36.37-.68.65-.95.28-.27.6-.48.97-.63s.78-.22,1.23-.22.85.07,1.22.22.7.36.98.62c.28.27.49.58.64.95.15.36.23.76.23,1.19s-.08.83-.23,1.19c-.15.36-.37.68-.64.95-.28.27-.6.48-.98.62-.37.15-.78.22-1.22.22Zm0-.55c.35,0,.68-.06.98-.18s.56-.29.78-.51.39-.48.51-.77c.12-.29.18-.62.18-.97s-.06-.67-.18-.97c-.12-.29-.29-.55-.51-.77s-.48-.39-.78-.51c-.3-.12-.62-.18-.98-.18s-.68.06-.98.18c-.3.12-.56.29-.79.51-.22.22-.4.48-.52.77s-.18.62-.18.97.06.67.18.96c.12.3.3.55.52.77.22.22.49.39.79.51.3.12.63.18.98.18Z"/>
      </g>
      <g>
        <path class="cls-2" d="m70.44,25.61c0-.37-.3-.67-.67-.67s-.67.3-.67.67.3.67.67.67.67-.3.67-.67Z"/>
        <path class="cls-2" d="m55.49,8.23c6.01,0,7.4,3.74,14.28,3.74s8.28-3.74,14.28-3.74c.64.01,1.21.14,1.73.34-3.45-5.16-9.33-8.57-16.01-8.57s-12.56,3.4-16.01,8.57c.51-.2,1.09-.32,1.72-.33Z"/>
        <path class="cls-2" d="m69.78,20.67c-.53,0-.96.43-.96.96s.43.96.96.96.96-.43.96-.96-.43-.96-.96-.96Z"/>
        <path class="cls-2" d="m69.78,15.63c-.74,0-1.34.6-1.34,1.34s.6,1.34,1.34,1.34,1.34-.6,1.34-1.34-.6-1.34-1.34-1.34Z"/>
        <path class="cls-2" d="m69.77,38.49s0,0,0,0c0,0,.01,0,.02,0,0,0-.01,0-.02,0Z"/>
        <path class="cls-2" d="m67.81,37.88c.15-1.24.26-2.34.28-3.65.48-9.01-4.29-23.55-12.64-23.47-2.56,0-3.08,3.57-1.14,4.21,1.19.39,1.05.85,1.16,1.91,0,.3-.27.54-.57.49-2.02-.34-3.24-1.52-3.74-2.93-.4,1.54-.61,3.15-.61,4.81,0,10.03,7.67,18.26,17.46,19.16-.18-.04-.21-.32-.19-.53Zm-9.88-20.74c-.62-.12-1.16-.52-1.44-1.1h0c-.23-.55-.27-1.09-.33-1.73.1-1.71,3.61.37,4.16.66,1.89,1.17,3.55,2.9,4.44,5.2-1.83-1.85-4.3-2.53-6.82-3.02Z"/>
        <path class="cls-2" d="m88.41,14.43c-.5,1.41-1.72,2.59-3.74,2.93-.3.05-.57-.19-.57-.49.11-1.07-.04-1.52,1.16-1.91,1.94-.64,1.42-4.21-1.14-4.21-8.35-.07-13.12,14.46-12.64,23.47.02,1.31.12,2.41.28,3.65.03.22-.07.51-.26.53-.02,0-.03,0-.05,0,.02,0,.04,0,.06,0,9.82-.87,17.52-9.12,17.52-19.17,0-1.66-.21-3.27-.61-4.81Zm-5.34,1.6h0c-.28.59-.83.98-1.44,1.1-2.53.48-4.99,1.16-6.82,3.02.89-2.3,2.55-4.03,4.44-5.2.55-.29,4.06-2.37,4.16-.66-.06.64-.1,1.18-.33,1.74Z"/>
      </g>
    </g>
  </g>
</svg>