<?xml version="1.0" encoding="UTF-8"?>
<svg id="Layer_2" data-name="Layer 2" xmlns="http://www.w3.org/2000/svg" viewBox="0 0 83.81 51.31">
  <defs>
    <style>
      .cls-1, .cls-2 {
        fill: #995c54;
      }

      .cls-2 {
        fill-rule: evenodd;
      }
    </style>
  </defs>
  <g id="Logotype">
    <g>
      <g>
        <g>
          <path class="cls-1" d="m6.16,37.97c-2.97,0-4.94-1.13-5.49-1.51-.1-.07-.1-.22-.02-.29l.91-1.1c.07-.07.19-.05.24.02.36.53,1.75,2.61,4.41,2.61s3.84-1.97,3.84-3.29c0-3.53-8.95-2.37-8.95-7.75,0-2.42,2.28-4.01,5.18-4.01,2.61,0,4.17,1.27,4.56,1.68.07.07.07.17.02.24l-.84,1.15c-.07.07-.22.05-.24-.05-.26-.65-1.08-2.76-3.48-2.76-1.99,0-3.72,1.15-3.72,3.26,0,4.22,8.92,3.07,8.92,7.65,0,3.17-3.65,4.13-5.35,4.13Z"/>
          <path class="cls-1" d="m22.79,37.89h-1.63c-.07,0-.14-.07-.14-.14v-1.32c0-.07-.07-.1-.1-.05-.79.94-2.02,1.68-3.43,1.68-1.92,0-3.98-.72-3.98-2.61,0-3.02,3.89-4.22,7.44-4.29.05,0,.07-.02.07-.07v-.77c0-1.97-.74-3.19-2.76-3.19-2.23,0-2.49,2.01-2.93,2.97-.07.14-.24.19-.38.12l-.91-.55c-.12-.07-.14-.24-.07-.36.7-1.2,2.33-2.42,4.29-2.42,1.73,0,4.1.82,4.1,3.43v6.96c0,.31.26.36.43.46.05.05.05.12,0,.17Zm-1.77-6.43s-.02-.07-.07-.07c-3.02.1-5.95,1.25-5.95,4.01,0,1.39,1.01,2.42,2.49,2.42,1.85,0,3.12-1.75,3.53-3.57v-2.78Z"/>
          <path class="cls-1" d="m25.03,37.8s.02-.07.05-.1c.58-.22.65-.74.65-1.3v-7.8c0-.36-.24-.58-.41-.67-.07-.05-.07-.12,0-.17l1.61-.86c.07-.05.14,0,.14.1v2.95s.07.05.07.02c.43-.94,1.63-3.09,3.77-3.09,2.28,0,3.62,1.49,3.62,3.36v6.19c.02.55.1,1.06.65,1.27.05.02.05.05.05.1s-.02.1-.07.1h-2.57s-.1-.05-.1-.1.02-.07.05-.1c.6-.22.65-.77.65-1.3v-6.16c0-1.46-1.03-2.97-2.47-2.97-2.02,0-3.26,2.69-3.6,3.53-.02.05-.05.12-.05.19v5.42c0,.55.07,1.08.65,1.3.02.02.05.05.05.1s-.02.1-.07.1h-2.57s-.1-.05-.1-.1Z"/>
          <path class="cls-1" d="m42.73,38.04c-2.97,0-5.4-2.21-5.4-5.56s2.42-5.59,5.4-5.59c1.75,0,3.31.77,4.29,2.06.07.12.07.26-.02.36l-.67.79c-.12.14-.36.12-.36-.07,0-1.22-1.54-2.9-3.24-2.9-2.16,0-3.91,2.11-3.91,5.35s2.09,5.13,4.25,5.13c1.27,0,2.88-.58,3.86-1.78.02-.02.05-.05.1-.05h.05s.05.05.02.07c-.96,1.39-2.57,2.18-4.37,2.18Z"/>
          <path class="cls-1" d="m59.32,37.8s-.02.1-.07.1h-2.57s-.1-.05-.1-.1.02-.07.05-.1c.58-.22.65-.74.65-1.3v-6.16c0-1.46-1.03-2.97-2.47-2.97-2.09,0-3.38,2.93-3.65,3.62v5.52c0,.55.07,1.08.65,1.3.02.02.05.05.05.1s-.02.1-.07.1h-2.57s-.1-.05-.1-.1.02-.07.05-.1c.58-.22.65-.74.65-1.3v-8.97c0-2.73,3.07-4.7,4.05-4.7.07,0,.12.1.07.14l-.48.98c-.02.07-.07.19-.24.19h-.94c-1.18,0-1.13,1.73-1.13,2.18v3.91c.34-.77,1.56-3.26,3.84-3.26s3.62,1.49,3.62,3.36v6.19c0,.55.1,1.06.65,1.27.02.02.05.05.05.1Z"/>
          <path class="cls-1" d="m66.89,38.04c-2.97,0-5.4-2.21-5.4-5.56s2.42-5.59,5.4-5.59,4.39,2.57,4.51,4.51v.07c0,.07-.07.14-.14.14h-8.11c-.07,0-.12.05-.14.12-.02.24-.02.48-.02.74,0,3.24,2.09,5.13,4.25,5.13,1.27,0,2.88-.58,3.86-1.78.02-.02.05-.05.1-.05h.05s.05.05.02.07c-.96,1.39-2.57,2.18-4.37,2.18Zm-3.81-6.81c-.02.1.05.17.12.17h6.55c.1,0,.17-.1.17-.19-.07-1.39-.58-4.08-3.02-4.08-1.87,0-3.43,1.58-3.81,4.1Z"/>
          <path class="cls-1" d="m72.82,37.89c-.12,0-.19-.14-.12-.22.94-1.37,5.37-7.8,7.12-10.34.07-.1,0-.22-.12-.22h-5.04c-.72,0-1.34,1.54-1.34,1.54-.02.02-.05.02-.07.02h-.02s-.07-.02-.07-.05l.24-1.61c0-.07.07-.14.14-.14h7.96c.1,0,.17.14.12.24-2.16,3.09-5.16,7.44-7.15,10.31-.07.1,0,.22.12.22h5.66c.74,0,1.37-1.54,1.37-1.54,0-.02.02-.02.05-.02h.05s.05.02.05.05l-.24,1.61c0,.07-.05.14-.14.14h-8.56Z"/>
        </g>
        <g>
          <path class="cls-1" d="m.59,19.06s.02-.07.05-.1c.58-.22.65-.74.65-1.3V5.49c0-.55-.07-1.08-.65-1.3-.02-.02-.05-.05-.05-.1s.05-.1.1-.1h2.73s.07.05.07.1-.02.07-.05.1c-.58.22-.65.74-.65,1.3v12.19c0,.55.07,1.08.65,1.3.02.02.05.05.05.1s-.02.1-.07.1H.69s-.1-.05-.1-.1Z"/>
          <path class="cls-1" d="m5.73,18.01l.58-.65s.12-.05.17.02c.26.38,1.37,1.7,3.29,1.7,2.02,0,2.81-1.42,2.81-2.37,0-2.57-6.48-1.63-6.48-5.64,0-1.75,1.63-2.93,3.74-2.93,1.89,0,3.02.94,3.33,1.22.05.07.05.14,0,.19l-.5.67s-.14.02-.17-.05c-.19-.46-.89-1.8-2.64-1.8-1.46,0-2.69.79-2.69,2.35,0,3.07,6.48,2.13,6.48,5.56,0,2.3-2.66,3.02-3.91,3.02-2.16,0-3.6-.84-4.01-1.13-.07-.05-.07-.14,0-.19Z"/>
          <path class="cls-1" d="m24.81,19.16h-1.63c-.07,0-.14-.07-.14-.14v-1.32c0-.07-.07-.1-.1-.05-.79.94-2.02,1.68-3.43,1.68-1.92,0-3.98-.72-3.98-2.61,0-3.02,3.89-4.22,7.44-4.29.05,0,.07-.02.07-.07v-.77c0-1.97-.74-3.19-2.76-3.19-2.23,0-2.49,2.01-2.93,2.97-.07.14-.24.19-.38.12l-.91-.55c-.12-.07-.14-.24-.07-.36.7-1.2,2.33-2.42,4.29-2.42,1.73,0,4.1.82,4.1,3.43v6.96c0,.31.26.36.43.46.05.05.05.12,0,.17Zm-1.77-6.43s-.02-.07-.07-.07c-3.02.1-5.95,1.25-5.95,4.01,0,1.39,1.01,2.42,2.49,2.42,1.85,0,3.12-1.75,3.53-3.57v-2.78Z"/>
          <path class="cls-1" d="m37.79,13.74c0,3.36-2.42,5.56-5.4,5.56s-5.4-2.21-5.4-5.56,2.42-5.59,5.4-5.59,5.4,2.21,5.4,5.59Zm-1.49,0c0-3.24-1.75-5.35-3.91-5.35s-3.91,2.11-3.91,5.35,1.75,5.33,3.91,5.33,3.91-2.09,3.91-5.33Z"/>
          <path class="cls-1" d="m39.83,19.01s.02-.07.05-.1c.58-.22.65-.74.65-1.3v-7.77c0-.38-.24-.6-.41-.7-.07-.05-.07-.12,0-.14l1.61-.89c.07-.02.14.02.14.1v1.97s.07.02.1,0c.53-.67,2.23-2.04,3.48-2.04s2.02.6,2.06.82c.02.05,0,.07-.02.12l-.7,1.44h-.05s-.41-1.68-1.75-1.68c-1.42,0-2.66,1.18-3.07,1.75-.02.02-.05.1-.05.14v6.91c0,.53.07,1.06.65,1.27.02.02.05.05.05.1s-.02.1-.07.1h-2.57s-.1-.05-.1-.1Z"/>
          <path class="cls-1" d="m58.24,19.16h-1.63c-.07,0-.14-.07-.14-.14v-1.32c0-.07-.07-.1-.1-.05-.79.94-2.02,1.68-3.43,1.68-1.92,0-3.98-.72-3.98-2.61,0-3.02,3.89-4.22,7.44-4.29.05,0,.07-.02.07-.07v-.77c0-1.97-.74-3.19-2.76-3.19-2.23,0-2.49,2.01-2.93,2.97-.07.14-.24.19-.38.12l-.91-.55c-.12-.07-.14-.24-.07-.36.7-1.2,2.33-2.42,4.29-2.42,1.73,0,4.1.82,4.1,3.43v6.96c0,.31.26.36.43.46.05.05.05.12,0,.17Zm-1.77-6.43s-.02-.07-.07-.07c-3.02.1-5.95,1.25-5.95,4.01,0,1.39,1.01,2.42,2.49,2.42,1.85,0,3.12-1.75,3.53-3.57v-2.78Z"/>
        </g>
        <g>
          <path class="cls-1" d="m3.36,49.28c-.42,0-.81-.07-1.17-.21-.36-.14-.67-.34-.94-.6-.26-.26-.47-.56-.62-.9-.15-.34-.22-.72-.22-1.13s.07-.79.22-1.13.35-.65.62-.9c.26-.26.57-.46.93-.6.36-.14.75-.21,1.18-.21s.81.07,1.17.21c.36.14.67.34.93.6.26.26.47.56.62.9s.22.73.22,1.14-.07.79-.22,1.14c-.15.35-.35.65-.62.9-.26.26-.57.45-.93.6-.36.14-.75.21-1.17.21Zm0-.53c.34,0,.65-.06.93-.17s.53-.28.74-.49c.21-.21.37-.46.49-.74s.18-.59.18-.92-.06-.64-.18-.92-.28-.53-.49-.74-.46-.37-.74-.49c-.29-.11-.6-.17-.93-.17s-.65.06-.94.17c-.29.11-.54.28-.75.49s-.38.46-.5.74c-.12.28-.18.59-.18.92s.06.64.18.92c.12.28.28.53.5.74.21.21.46.37.75.49.29.11.6.17.94.17Z"/>
          <path class="cls-1" d="m9.93,49.28c-.42,0-.81-.07-1.2-.2-.38-.14-.68-.31-.88-.52l.23-.46c.2.19.46.35.8.48.33.13.68.2,1.05.2s.64-.04.86-.13c.22-.09.38-.21.49-.36.1-.15.16-.31.16-.5,0-.22-.06-.39-.19-.53-.12-.13-.29-.24-.49-.32-.2-.08-.43-.15-.67-.2-.25-.06-.49-.12-.74-.19-.25-.07-.47-.16-.68-.27-.21-.11-.37-.26-.5-.44s-.19-.43-.19-.72c0-.28.07-.53.22-.76.15-.23.37-.42.68-.56.3-.14.69-.21,1.17-.21.31,0,.63.04.94.13.31.09.58.21.8.36l-.2.47c-.24-.16-.49-.28-.76-.35-.27-.07-.53-.11-.78-.11-.34,0-.61.05-.83.14-.22.09-.38.21-.48.36-.1.15-.16.32-.16.52,0,.22.06.39.19.53.12.13.29.24.5.31.21.07.43.14.68.2.25.06.49.12.73.19.24.07.47.16.67.27.21.11.37.25.5.44.12.18.19.42.19.71,0,.27-.07.52-.22.76s-.38.42-.68.56c-.31.14-.7.21-1.18.21Z"/>
          <path class="cls-1" d="m15.31,49.23v-5.09h-1.97v-.51h4.53v.51h-1.97v5.09h-.59Z"/>
          <path class="cls-1" d="m20.25,48.72h3.37v.51h-3.96v-5.6h3.84v.51h-3.25v4.57Zm-.06-2.58h2.96v.5h-2.96v-.5Zm.88-2.96l1.1-.99h.76l-1.3.99h-.56Z"/>
          <path class="cls-1" d="m28.12,49.28c-.42,0-.81-.07-1.17-.21-.36-.14-.67-.34-.94-.6-.26-.26-.47-.56-.62-.9-.15-.34-.22-.72-.22-1.13s.07-.79.22-1.13.35-.65.62-.9c.26-.26.57-.46.93-.6.36-.14.75-.21,1.18-.21s.81.07,1.17.21c.36.14.67.34.93.6.26.26.47.56.62.9s.22.73.22,1.14-.07.79-.22,1.14c-.15.35-.35.65-.62.9-.26.26-.57.45-.93.6-.36.14-.75.21-1.17.21Zm0-.53c.34,0,.65-.06.93-.17s.53-.28.74-.49c.21-.21.37-.46.49-.74s.18-.59.18-.92-.06-.64-.18-.92-.28-.53-.49-.74-.46-.37-.74-.49c-.29-.11-.6-.17-.93-.17s-.65.06-.94.17c-.29.11-.54.28-.75.49s-.38.46-.5.74c-.12.28-.18.59-.18.92s.06.64.18.92c.12.28.28.53.5.74.21.21.46.37.75.49.29.11.6.17.94.17Z"/>
          <path class="cls-1" d="m33.18,49.23v-5.6h2.1c.47,0,.88.08,1.22.23s.6.37.79.66c.18.29.28.63.28,1.04s-.09.73-.28,1.02c-.18.29-.45.51-.79.66-.34.15-.75.23-1.22.23h-1.77l.26-.28v2.05h-.59Zm.59-2l-.26-.29h1.75c.56,0,.99-.12,1.28-.36.29-.24.44-.58.44-1.03s-.15-.79-.44-1.04c-.29-.25-.72-.37-1.28-.37h-1.75l.26-.28v3.37Z"/>
          <path class="cls-1" d="m38.46,49.23l2.56-5.6h.58l2.56,5.6h-.62l-2.35-5.25h.24l-2.35,5.25h-.62Zm1.01-1.5l.18-.48h3.25l.18.48h-3.61Z"/>
          <path class="cls-1" d="m46.51,49.23v-5.09h-1.97v-.51h4.53v.51h-1.97v5.09h-.59Z"/>
          <path class="cls-1" d="m51.45,49.23h-.59v-5.6h.59v5.6Zm3.56-2.58h-3.62v-.52h3.62v.52Zm-.06-3.01h.58v5.6h-.58v-5.6Z"/>
          <path class="cls-1" d="m58.63,48.72h3.37v.51h-3.96v-5.6h3.84v.51h-3.25v4.57Zm-.06-2.58h2.96v.5h-2.96v-.5Z"/>
          <path class="cls-1" d="m67.01,49.23v-5.6h2.28c.6,0,1.12.12,1.57.36.45.24.8.57,1.05.99.25.42.38.91.38,1.46s-.13,1.03-.38,1.46c-.25.42-.6.75-1.05.99-.45.24-.97.36-1.57.36h-2.28Zm.59-.51h1.66c.5,0,.93-.1,1.29-.29.37-.19.65-.46.85-.81s.3-.74.3-1.19-.1-.85-.3-1.19c-.2-.34-.49-.61-.85-.8-.37-.19-.8-.29-1.29-.29h-1.66v4.57Z"/>
          <path class="cls-1" d="m74.32,49.27c-.12,0-.22-.04-.3-.13-.08-.09-.12-.19-.12-.31s.04-.23.12-.31c.08-.08.18-.12.3-.12s.22.04.3.12.12.18.12.31-.04.23-.12.31c-.08.09-.18.13-.3.13Z"/>
          <path class="cls-1" d="m79.28,49.28c-.42,0-.81-.07-1.17-.21-.36-.14-.67-.34-.94-.6-.26-.26-.47-.56-.62-.9-.15-.34-.22-.72-.22-1.13s.07-.79.22-1.13.35-.65.62-.9c.26-.26.57-.46.93-.6.36-.14.75-.21,1.18-.21s.81.07,1.17.21c.36.14.67.34.93.6.26.26.47.56.62.9s.22.73.22,1.14-.07.79-.22,1.14c-.15.35-.35.65-.62.9-.26.26-.57.45-.93.6-.36.14-.75.21-1.17.21Zm0-.53c.34,0,.65-.06.93-.17s.53-.28.74-.49c.21-.21.37-.46.49-.74s.18-.59.18-.92-.06-.64-.18-.92-.28-.53-.49-.74-.46-.37-.74-.49c-.29-.11-.6-.17-.93-.17s-.65.06-.94.17c-.29.11-.54.28-.75.49s-.38.46-.5.74c-.12.28-.18.59-.18.92s.06.64.18.92c.12.28.28.53.5.74.21.21.46.37.75.49.29.11.6.17.94.17Z"/>
        </g>
      </g>
      <path class="cls-2" d="m64.23,6.42c.1-.18.21-.37.32-.54,1.72-2.65,4.7-4.41,8.1-4.41s6.38,1.75,8.1,4.41c.11.18.22.36.32.54-.36-.29-.84-.48-1.42-.49-2.94,0-3.62,1.83-7,1.83s-4.05-1.83-7-1.83c-.58.01-1.06.2-1.42.49Zm8.42,14.33s0,0,0,0c0,0,0,0,0,0,0,0,0,0-.01,0Zm-.96-.3c-.01.11,0,.25.1.26-4.92-.44-8.77-4.57-8.77-9.6,0-.94.14-1.85.39-2.71.08.92.7,1.79,1.95,2,.15.02.28-.09.28-.24-.05-.52.02-.74-.57-.94-.95-.31-.69-2.06.56-2.06,4.09-.04,6.43,7.08,6.19,11.5,0,.64-.06,1.18-.14,1.79Zm-1.5-8.68c-.44-1.13-1.25-1.97-2.17-2.55-.27-.14-1.99-1.16-2.04-.32.03.32.05.58.16.85h0c.14.29.41.48.71.54,1.24.24,2.44.57,3.34,1.48Zm12.1-.66c0,5.03-3.86,9.16-8.78,9.6-.02,0-.04,0-.06,0,.01,0,.03,0,.04,0,.09-.01.14-.15.13-.26-.08-.61-.13-1.14-.14-1.79-.24-4.42,2.1-11.54,6.19-11.5,1.25,0,1.51,1.75.56,2.06-.58.19-.51.41-.57.94,0,.15.13.26.28.24,1.25-.21,1.88-1.08,1.95-2,.25.86.39,1.77.39,2.71Zm-2.96-2.21c-.05-.84-1.77.18-2.04.32-.93.57-1.74,1.42-2.17,2.55.9-.91,2.1-1.24,3.34-1.48.3-.06.57-.25.71-.54h0c.11-.27.13-.53.16-.85Zm-6.68.65c-.36,0-.66.29-.66.66s.29.66.66.66.66-.29.66-.66-.29-.66-.66-.66Zm0,2.47c-.26,0-.47.21-.47.47s.21.47.47.47.47-.21.47-.47-.21-.47-.47-.47Zm0,2.09c-.18,0-.33.15-.33.33s.15.33.33.33.33-.15.33-.33-.15-.33-.33-.33Z"/>
    </g>
  </g>
</svg>