<?xml version="1.0" encoding="UTF-8" standalone="no"?>
<!DOCTYPE svg PUBLIC "-//W3C//DTD SVG 1.1//EN" "http://www.w3.org/Graphics/SVG/1.1/DTD/svg11.dtd">
<svg width="100%" height="100%" viewBox="0 0 126 42" version="1.1" xmlns="http://www.w3.org/2000/svg" xmlns:xlink="http://www.w3.org/1999/xlink" xml:space="preserve" xmlns:serif="http://www.serif.com/" style="fill-rule:evenodd;clip-rule:evenodd;stroke-linejoin:round;stroke-miterlimit:2;">
    <g transform="matrix(1,0,0,1,-2307.24,-418.557)">
        <g>
            <g transform="matrix(1,0,0,1,0,0.0358)">
                <g transform="matrix(0,-1,-1,0,2326.56,444.973)">
                    <path d="M-0.67,-0.67C-0.3,-0.67 -0.001,-0.37 -0.001,-0.001C-0.001,0.369 -0.3,0.67 -0.67,0.67C-1.039,0.67 -1.338,0.369 -1.338,-0.001C-1.338,-0.37 -1.039,-0.67 -0.67,-0.67" style="fill:rgb(153,92,84);"/>
                </g>
                <g transform="matrix(1,0,0,1,2312.22,423.673)">
                    <path d="M0,4.515C6.031,4.515 7.43,8.267 14.343,8.267C21.255,8.267 22.654,4.515 28.685,4.515C29.328,4.53 29.905,4.652 30.42,4.852C26.953,-0.335 21.048,-3.752 14.344,-3.752C7.638,-3.752 1.733,-0.335 -1.732,4.85C-1.218,4.652 -0.641,4.53 0,4.515" style="fill:rgb(153,92,84);"/>
                </g>
                <g transform="matrix(-1,0,0,1,2326.56,442.6)">
                    <path d="M0,-1.921C0.531,-1.921 0.961,-1.491 0.961,-0.96C0.961,-0.43 0.531,0 0,0C-0.531,0 -0.961,-0.43 -0.961,-0.96C-0.961,-1.491 -0.531,-1.921 0,-1.921" style="fill:rgb(153,92,84);"/>
                </g>
                <g transform="matrix(-1,0,0,1,2326.56,438.306)">
                    <path d="M0,-2.691C0.743,-2.691 1.345,-2.089 1.345,-1.346C1.345,-0.603 0.743,0 0,0C-0.743,0 -1.345,-0.603 -1.345,-1.346C-1.345,-2.089 -0.743,-2.691 0,-2.691" style="fill:rgb(153,92,84);"/>
                </g>
                <g transform="matrix(1,0,0,1,2314.66,452)">
                    <path d="M0,-14.871C-0.618,-14.99 -1.168,-15.389 -1.45,-15.978L-1.454,-15.977C-1.69,-16.531 -1.725,-17.074 -1.786,-17.72C-1.682,-19.436 1.842,-17.352 2.393,-17.06C4.289,-15.887 5.956,-14.148 6.851,-11.841C5.009,-13.702 2.537,-14.384 0,-14.871M9.921,5.956C10.077,4.709 10.179,3.609 10.199,2.292C10.684,-6.759 5.894,-21.356 -2.493,-21.281C-5.063,-21.281 -5.59,-17.695 -3.642,-17.053C-2.445,-16.659 -2.587,-16.203 -2.48,-15.133C-2.48,-14.827 -2.754,-14.59 -3.055,-14.641C-5.087,-14.983 -6.311,-16.172 -6.812,-17.585C-7.21,-16.042 -7.426,-14.423 -7.426,-12.756C-7.426,-2.688 0.275,5.581 10.109,6.485C9.933,6.444 9.894,6.167 9.921,5.956" style="fill:rgb(153,92,84);"/>
                </g>
                <g transform="matrix(1,0,0,1,2339.91,453.117)">
                    <path d="M0,-17.094L-0.004,-17.095C-0.286,-16.505 -0.836,-16.106 -1.454,-15.988C-3.992,-15.501 -6.463,-14.819 -8.305,-12.958C-7.411,-15.264 -5.744,-17.004 -3.847,-18.176C-3.296,-18.468 0.228,-20.553 0.332,-18.837C0.271,-18.191 0.236,-17.648 0,-17.094M5.359,-18.702C4.859,-17.288 3.635,-16.099 1.603,-15.758C1.302,-15.707 1.028,-15.944 1.028,-16.25C1.135,-17.32 0.992,-17.775 2.189,-18.17C4.138,-18.812 3.61,-22.398 1.041,-22.398C-7.346,-22.473 -12.136,-7.876 -11.651,1.175C-11.631,2.492 -11.529,3.592 -11.374,4.839C-11.346,5.058 -11.441,5.351 -11.635,5.374C-11.65,5.376 -11.668,5.377 -11.684,5.379C-11.664,5.378 -11.644,5.377 -11.624,5.375C-1.762,4.501 5.973,-3.78 5.973,-13.873C5.973,-15.54 5.758,-17.158 5.359,-18.702" style="fill:rgb(153,92,84);"/>
                </g>
            </g>
            <g transform="matrix(1,0,0,1,0,-2.83707)">
                <g transform="matrix(1,0,0,1,-0.324332,0.324332)">
                    <g transform="matrix(19.32,0,0,23,2351.41,453.441)">
                        <path d="M0.601,-0.184C0.601,-0.233 0.575,-0.288 0.53,-0.318C0.423,-0.357 0.309,-0.369 0.2,-0.402C0.192,-0.406 0.183,-0.412 0.177,-0.418C0.164,-0.428 0.154,-0.44 0.146,-0.456C0.142,-0.469 0.138,-0.485 0.138,-0.495C0.138,-0.57 0.218,-0.622 0.295,-0.624L0.303,-0.624C0.385,-0.624 0.532,-0.593 0.541,-0.489L0.551,-0.487L0.585,-0.585L0.535,-0.605C0.491,-0.624 0.443,-0.638 0.396,-0.642C0.373,-0.644 0.345,-0.646 0.321,-0.646C0.272,-0.646 0.218,-0.638 0.175,-0.62C0.116,-0.591 0.075,-0.542 0.061,-0.481C0.061,-0.475 0.059,-0.465 0.059,-0.459C0.059,-0.385 0.112,-0.338 0.183,-0.316C0.268,-0.302 0.351,-0.282 0.433,-0.255C0.465,-0.245 0.493,-0.229 0.51,-0.2C0.514,-0.188 0.516,-0.17 0.516,-0.155C0.516,-0.104 0.485,-0.058 0.435,-0.033C0.4,-0.017 0.349,-0.005 0.304,-0.005C0.192,-0.005 0.075,-0.058 0.046,-0.168C0.03,-0.133 0.016,-0.094 0.006,-0.055C0.092,-0.007 0.2,0.013 0.303,0.013C0.329,0.013 0.357,0.011 0.381,0.009C0.445,0.005 0.518,-0.029 0.557,-0.078C0.587,-0.108 0.601,-0.145 0.601,-0.184Z" style="fill:rgb(153,92,84);fill-rule:nonzero;"/>
                    </g>
                    <g transform="matrix(19.32,0,0,23,2364.62,453.441)">
                        <path d="M0.533,-0.001C0.513,-0.019 0.497,-0.039 0.495,-0.068C0.487,-0.127 0.481,-0.19 0.481,-0.249C0.481,-0.288 0.485,-0.326 0.487,-0.361C0.487,-0.479 0.351,-0.518 0.252,-0.518L0.22,-0.518C0.157,-0.512 0.098,-0.495 0.042,-0.473L0.04,-0.465L0.068,-0.379C0.096,-0.454 0.173,-0.504 0.252,-0.504C0.278,-0.504 0.309,-0.497 0.337,-0.485C0.403,-0.452 0.411,-0.375 0.413,-0.308C0.386,-0.308 0.349,-0.31 0.319,-0.31C0.216,-0.31 0.102,-0.296 0.038,-0.22C0.02,-0.194 0.01,-0.168 0.01,-0.141C0.01,-0.082 0.059,-0.025 0.128,-0.007L0.224,0.009C0.301,0.009 0.377,-0.023 0.417,-0.094C0.417,-0.064 0.427,-0.031 0.441,-0.001L0.533,-0.001ZM0.413,-0.165C0.407,-0.119 0.386,-0.072 0.345,-0.041C0.329,-0.031 0.311,-0.023 0.293,-0.017C0.278,-0.015 0.262,-0.011 0.246,-0.011C0.176,-0.011 0.1,-0.051 0.1,-0.129C0.1,-0.135 0.104,-0.145 0.104,-0.153C0.12,-0.267 0.246,-0.288 0.349,-0.288L0.407,-0.288L0.413,-0.277L0.413,-0.165Z" style="fill:rgb(153,92,84);fill-rule:nonzero;"/>
                    </g>
                    <g transform="matrix(19.32,0,0,23,2375.75,453.441)">
                        <path d="M0.583,-0.001C0.561,-0.015 0.545,-0.031 0.537,-0.055L0.537,-0.123C0.537,-0.204 0.531,-0.288 0.527,-0.371C0.512,-0.465 0.419,-0.518 0.327,-0.518C0.236,-0.518 0.158,-0.467 0.13,-0.379L0.13,-0.504L0.02,-0.479L0.018,-0.469C0.03,-0.461 0.044,-0.45 0.054,-0.436C0.057,-0.428 0.061,-0.414 0.061,-0.406L0.061,-0.102C0.061,-0.062 0.04,-0.025 0.004,-0.001L0.182,-0.001C0.18,-0.003 0.18,-0.005 0.179,-0.007C0.156,-0.021 0.138,-0.039 0.136,-0.068C0.132,-0.112 0.128,-0.163 0.128,-0.212C0.128,-0.294 0.142,-0.383 0.194,-0.446C0.226,-0.475 0.268,-0.489 0.305,-0.489C0.371,-0.489 0.437,-0.45 0.449,-0.375C0.457,-0.316 0.461,-0.253 0.461,-0.194C0.461,-0.159 0.459,-0.121 0.457,-0.088C0.451,-0.051 0.437,-0.021 0.408,-0.001L0.583,-0.001Z" style="fill:rgb(153,92,84);fill-rule:nonzero;"/>
                    </g>
                    <g transform="matrix(19.32,0,0,23,2388.21,453.441)">
                        <path d="M0.522,-0.117C0.522,-0.125 0.52,-0.135 0.513,-0.141C0.497,-0.117 0.48,-0.094 0.458,-0.076C0.416,-0.037 0.356,-0.013 0.304,-0.013C0.251,-0.013 0.197,-0.037 0.156,-0.082C0.123,-0.129 0.099,-0.2 0.099,-0.267C0.099,-0.349 0.133,-0.436 0.199,-0.477C0.229,-0.491 0.263,-0.499 0.291,-0.499C0.372,-0.499 0.45,-0.452 0.484,-0.373L0.492,-0.371L0.518,-0.461C0.456,-0.491 0.389,-0.516 0.32,-0.518L0.304,-0.518C0.209,-0.518 0.119,-0.479 0.06,-0.402C0.033,-0.357 0.015,-0.306 0.015,-0.255C0.015,-0.222 0.025,-0.184 0.037,-0.149C0.081,-0.045 0.187,0.009 0.289,0.009C0.38,0.009 0.472,-0.033 0.522,-0.117Z" style="fill:rgb(153,92,84);fill-rule:nonzero;"/>
                    </g>
                    <g transform="matrix(19.32,0,0,23,2399.51,453.441)">
                        <path d="M0.581,-0.005C0.561,-0.013 0.541,-0.035 0.535,-0.055L0.535,-0.324C0.533,-0.355 0.525,-0.387 0.516,-0.418C0.481,-0.485 0.408,-0.518 0.333,-0.518C0.246,-0.518 0.154,-0.469 0.13,-0.383L0.13,-0.699L0.016,-0.668C0.016,-0.666 0.018,-0.664 0.018,-0.662C0.026,-0.658 0.032,-0.654 0.04,-0.652C0.052,-0.642 0.061,-0.624 0.061,-0.607L0.061,-0.078C0.059,-0.055 0.046,-0.037 0.032,-0.021C0.024,-0.017 0.016,-0.013 0.006,-0.011L0.006,-0.003L0.18,-0.001L0.182,-0.007C0.156,-0.017 0.138,-0.037 0.138,-0.068C0.134,-0.114 0.128,-0.17 0.128,-0.222C0.128,-0.284 0.136,-0.347 0.162,-0.402C0.175,-0.422 0.19,-0.44 0.206,-0.456C0.232,-0.479 0.272,-0.489 0.303,-0.489C0.355,-0.489 0.411,-0.463 0.437,-0.416C0.457,-0.357 0.465,-0.29 0.465,-0.228C0.465,-0.172 0.459,-0.112 0.453,-0.058C0.447,-0.033 0.431,-0.015 0.409,-0.003L0.581,-0.005Z" style="fill:rgb(153,92,84);fill-rule:nonzero;"/>
                    </g>
                    <g transform="matrix(19.32,0,0,23,2411.47,453.441)">
                        <path d="M0.551,-0.188L0.537,-0.202C0.527,-0.18 0.517,-0.153 0.505,-0.131C0.463,-0.06 0.383,-0.013 0.303,-0.013C0.268,-0.013 0.228,-0.025 0.194,-0.045C0.126,-0.092 0.102,-0.182 0.102,-0.261C0.102,-0.282 0.104,-0.302 0.106,-0.32L0.543,-0.322C0.531,-0.442 0.397,-0.518 0.282,-0.518C0.274,-0.518 0.262,-0.516 0.252,-0.516C0.208,-0.51 0.166,-0.493 0.128,-0.471C0.053,-0.418 0.012,-0.338 0.012,-0.253C0.012,-0.228 0.02,-0.196 0.028,-0.168C0.068,-0.047 0.176,0.009 0.295,0.009L0.311,0.009L0.403,-0.013C0.477,-0.045 0.531,-0.11 0.551,-0.188ZM0.445,-0.34L0.114,-0.34C0.124,-0.418 0.178,-0.487 0.258,-0.495L0.281,-0.495C0.363,-0.495 0.445,-0.442 0.445,-0.355L0.445,-0.34Z" style="fill:rgb(153,92,84);fill-rule:nonzero;"/>
                    </g>
                    <g transform="matrix(19.32,0,0,23,2423.41,453.441)">
                        <path d="M0.502,-0.123C0.495,-0.123 0.491,-0.121 0.485,-0.119C0.476,-0.108 0.466,-0.096 0.456,-0.086C0.402,-0.049 0.342,-0.029 0.275,-0.025L0.156,-0.025L0.144,-0.031C0.142,-0.033 0.14,-0.037 0.14,-0.039C0.14,-0.045 0.142,-0.055 0.144,-0.062L0.476,-0.491L0.476,-0.506L0.069,-0.506L0.034,-0.402L0.04,-0.392C0.042,-0.398 0.044,-0.404 0.048,-0.408C0.085,-0.444 0.131,-0.471 0.181,-0.483L0.354,-0.483C0.36,-0.479 0.364,-0.473 0.366,-0.469C0.366,-0.465 0.364,-0.459 0.362,-0.456L0.015,-0.021L0.007,-0.001L0.464,-0.001L0.502,-0.123Z" style="fill:rgb(153,92,84);fill-rule:nonzero;"/>
                    </g>
                </g>
                <g transform="matrix(1,0,0,1,-0.324332,0.324332)">
                    <g transform="matrix(19.32,0,0,23,2351.39,435.56)">
                        <path d="M0.237,-0.007C0.199,-0.017 0.189,-0.053 0.181,-0.088L0.181,-0.542C0.181,-0.544 0.179,-0.55 0.179,-0.552C0.179,-0.572 0.187,-0.591 0.197,-0.607C0.205,-0.614 0.213,-0.62 0.221,-0.622L0.219,-0.63L0.06,-0.63C0.06,-0.626 0.062,-0.622 0.062,-0.618C0.07,-0.614 0.078,-0.607 0.086,-0.599C0.092,-0.587 0.096,-0.577 0.1,-0.566L0.1,-0.125C0.098,-0.082 0.084,-0.025 0.037,-0.007L0.041,-0.001L0.233,-0.001L0.237,-0.007Z" style="fill:rgb(153,92,84);fill-rule:nonzero;"/>
                    </g>
                    <g transform="matrix(19.32,0,0,23,2357.42,435.56)">
                        <path d="M0.488,-0.155C0.488,-0.222 0.437,-0.282 0.362,-0.286C0.293,-0.288 0.226,-0.3 0.157,-0.32C0.131,-0.338 0.116,-0.361 0.116,-0.387C0.116,-0.41 0.126,-0.436 0.139,-0.454C0.17,-0.487 0.212,-0.499 0.252,-0.499C0.327,-0.499 0.409,-0.456 0.437,-0.387C0.449,-0.418 0.461,-0.446 0.463,-0.479C0.429,-0.493 0.388,-0.506 0.353,-0.512C0.331,-0.514 0.299,-0.518 0.272,-0.518C0.184,-0.518 0.082,-0.489 0.049,-0.402C0.045,-0.387 0.041,-0.373 0.041,-0.361C0.041,-0.294 0.11,-0.247 0.176,-0.233L0.335,-0.21C0.355,-0.206 0.374,-0.2 0.391,-0.188C0.411,-0.17 0.419,-0.147 0.419,-0.129C0.419,-0.078 0.36,-0.023 0.311,-0.015L0.214,-0.011C0.139,-0.023 0.06,-0.053 0.037,-0.133L0.002,-0.039C0.045,-0.007 0.106,-0 0.159,0.005C0.186,0.007 0.214,0.009 0.238,0.009C0.331,0.009 0.423,-0.015 0.476,-0.1C0.484,-0.117 0.488,-0.137 0.488,-0.155Z" style="fill:rgb(153,92,84);fill-rule:nonzero;"/>
                    </g>
                    <g transform="matrix(19.32,0,0,23,2368,435.56)">
                        <path d="M0.533,-0.001C0.513,-0.019 0.497,-0.039 0.495,-0.068C0.487,-0.127 0.481,-0.19 0.481,-0.249C0.481,-0.288 0.485,-0.326 0.487,-0.361C0.487,-0.479 0.351,-0.518 0.252,-0.518L0.22,-0.518C0.157,-0.512 0.098,-0.495 0.042,-0.473L0.04,-0.465L0.068,-0.379C0.096,-0.454 0.173,-0.504 0.252,-0.504C0.278,-0.504 0.309,-0.497 0.337,-0.485C0.403,-0.452 0.411,-0.375 0.413,-0.308C0.386,-0.308 0.349,-0.31 0.319,-0.31C0.216,-0.31 0.102,-0.296 0.038,-0.22C0.02,-0.194 0.01,-0.168 0.01,-0.141C0.01,-0.082 0.059,-0.025 0.128,-0.007L0.224,0.009C0.301,0.009 0.377,-0.023 0.417,-0.094C0.417,-0.064 0.427,-0.031 0.441,-0.001L0.533,-0.001ZM0.413,-0.165C0.407,-0.119 0.386,-0.072 0.345,-0.041C0.329,-0.031 0.311,-0.023 0.293,-0.017C0.278,-0.015 0.262,-0.011 0.246,-0.011C0.176,-0.011 0.1,-0.051 0.1,-0.129C0.1,-0.135 0.104,-0.145 0.104,-0.153C0.12,-0.267 0.246,-0.288 0.349,-0.288L0.407,-0.288L0.413,-0.277L0.413,-0.165Z" style="fill:rgb(153,92,84);fill-rule:nonzero;"/>
                    </g>
                    <g transform="matrix(19.32,0,0,23,2379.13,435.56)">
                        <path d="M0.586,-0.257C0.586,-0.275 0.584,-0.294 0.58,-0.312C0.546,-0.442 0.422,-0.518 0.296,-0.518C0.279,-0.518 0.263,-0.518 0.247,-0.516C0.165,-0.497 0.095,-0.458 0.049,-0.387C0.029,-0.343 0.015,-0.298 0.015,-0.255C0.015,-0.168 0.066,-0.082 0.147,-0.031C0.193,-0.005 0.251,0.009 0.304,0.009C0.32,0.009 0.342,0.007 0.356,0.005C0.486,-0.013 0.586,-0.131 0.586,-0.257ZM0.494,-0.243C0.494,-0.17 0.474,-0.082 0.415,-0.039C0.382,-0.019 0.34,-0.005 0.301,-0.005C0.241,-0.005 0.178,-0.037 0.141,-0.09C0.117,-0.133 0.101,-0.19 0.101,-0.247C0.101,-0.357 0.151,-0.473 0.259,-0.495C0.269,-0.495 0.281,-0.497 0.292,-0.497C0.392,-0.497 0.488,-0.424 0.49,-0.314C0.492,-0.294 0.494,-0.267 0.494,-0.243Z" style="fill:rgb(153,92,84);fill-rule:nonzero;"/>
                    </g>
                    <g transform="matrix(19.32,0,0,23,2391.29,435.56)">
                        <path d="M0.326,-0.508L0.308,-0.508C0.236,-0.508 0.168,-0.44 0.141,-0.381L0.141,-0.504L0.017,-0.471C0.037,-0.467 0.054,-0.458 0.065,-0.438C0.065,-0.434 0.067,-0.424 0.067,-0.418L0.067,-0.119C0.063,-0.088 0.059,-0.047 0.039,-0.021C0.029,-0.015 0.017,-0.011 0.007,-0.009L0.009,-0.001L0.196,-0.001L0.198,-0.011L0.19,-0.011C0.151,-0.021 0.139,-0.068 0.139,-0.102L0.139,-0.318C0.145,-0.338 0.157,-0.357 0.166,-0.377C0.182,-0.412 0.212,-0.438 0.244,-0.438C0.26,-0.438 0.281,-0.432 0.292,-0.418L0.326,-0.508Z" style="fill:rgb(153,92,84);fill-rule:nonzero;"/>
                    </g>
                    <g transform="matrix(19.32,0,0,23,2398.72,435.56)">
                        <path d="M0.533,-0.001C0.513,-0.019 0.497,-0.039 0.495,-0.068C0.487,-0.127 0.481,-0.19 0.481,-0.249C0.481,-0.288 0.485,-0.326 0.487,-0.361C0.487,-0.479 0.351,-0.518 0.252,-0.518L0.22,-0.518C0.157,-0.512 0.098,-0.495 0.042,-0.473L0.04,-0.465L0.068,-0.379C0.096,-0.454 0.173,-0.504 0.252,-0.504C0.278,-0.504 0.309,-0.497 0.337,-0.485C0.403,-0.452 0.411,-0.375 0.413,-0.308C0.386,-0.308 0.349,-0.31 0.319,-0.31C0.216,-0.31 0.102,-0.296 0.038,-0.22C0.02,-0.194 0.01,-0.168 0.01,-0.141C0.01,-0.082 0.059,-0.025 0.128,-0.007L0.224,0.009C0.301,0.009 0.377,-0.023 0.417,-0.094C0.417,-0.064 0.427,-0.031 0.441,-0.001L0.533,-0.001ZM0.413,-0.165C0.407,-0.119 0.386,-0.072 0.345,-0.041C0.329,-0.031 0.311,-0.023 0.293,-0.017C0.278,-0.015 0.262,-0.011 0.246,-0.011C0.176,-0.011 0.1,-0.051 0.1,-0.129C0.1,-0.135 0.104,-0.145 0.104,-0.153C0.12,-0.267 0.246,-0.288 0.349,-0.288L0.407,-0.288L0.413,-0.277L0.413,-0.165Z" style="fill:rgb(153,92,84);fill-rule:nonzero;"/>
                    </g>
                </g>
                <g transform="matrix(1.04115,0,0,1,-96.7537,0)">
                    <g transform="matrix(7.6319,0,0,7.6319,2350.85,462.707)">
                        <path d="M0.421,0.008C0.367,0.008 0.318,-0.001 0.272,-0.019C0.227,-0.037 0.187,-0.062 0.154,-0.094C0.12,-0.126 0.094,-0.164 0.076,-0.208C0.057,-0.251 0.048,-0.298 0.048,-0.35C0.048,-0.402 0.057,-0.449 0.076,-0.492C0.094,-0.536 0.12,-0.574 0.154,-0.606C0.188,-0.638 0.227,-0.663 0.272,-0.681C0.318,-0.699 0.367,-0.708 0.421,-0.708C0.474,-0.708 0.523,-0.699 0.569,-0.681C0.614,-0.664 0.653,-0.639 0.686,-0.606C0.72,-0.574 0.746,-0.536 0.764,-0.493C0.783,-0.449 0.792,-0.402 0.792,-0.35C0.792,-0.298 0.783,-0.251 0.764,-0.207C0.746,-0.164 0.72,-0.126 0.686,-0.094C0.653,-0.061 0.614,-0.036 0.569,-0.019C0.523,-0.001 0.474,0.008 0.421,0.008ZM0.421,-0.081C0.46,-0.081 0.495,-0.088 0.528,-0.101C0.561,-0.114 0.59,-0.133 0.614,-0.158C0.639,-0.182 0.658,-0.21 0.672,-0.243C0.685,-0.276 0.692,-0.311 0.692,-0.35C0.692,-0.389 0.685,-0.425 0.672,-0.457C0.658,-0.49 0.639,-0.518 0.615,-0.542C0.59,-0.567 0.561,-0.585 0.528,-0.599C0.496,-0.612 0.46,-0.619 0.421,-0.619C0.382,-0.619 0.345,-0.612 0.312,-0.599C0.279,-0.585 0.25,-0.567 0.226,-0.542C0.201,-0.518 0.182,-0.489 0.169,-0.457C0.155,-0.424 0.148,-0.389 0.148,-0.35C0.148,-0.312 0.155,-0.276 0.169,-0.243C0.182,-0.211 0.201,-0.182 0.226,-0.158C0.25,-0.133 0.279,-0.114 0.312,-0.101C0.345,-0.088 0.382,-0.081 0.421,-0.081Z" style="fill:rgb(153,92,84);fill-rule:nonzero;"/>
                    </g>
                    <g transform="matrix(7.6319,0,0,7.6319,2358.04,462.707)">
                        <path d="M0.309,0.008C0.256,0.008 0.205,-0 0.156,-0.017C0.107,-0.033 0.069,-0.054 0.041,-0.08L0.078,-0.158C0.104,-0.135 0.138,-0.115 0.18,-0.1C0.221,-0.085 0.264,-0.077 0.309,-0.077C0.349,-0.077 0.382,-0.082 0.408,-0.091C0.433,-0.101 0.452,-0.113 0.464,-0.13C0.476,-0.146 0.482,-0.164 0.482,-0.185C0.482,-0.209 0.474,-0.229 0.458,-0.243C0.443,-0.258 0.423,-0.27 0.398,-0.279C0.373,-0.287 0.345,-0.295 0.315,-0.302C0.285,-0.309 0.255,-0.317 0.224,-0.326C0.194,-0.334 0.166,-0.346 0.142,-0.36C0.117,-0.374 0.096,-0.393 0.081,-0.416C0.065,-0.44 0.058,-0.47 0.058,-0.508C0.058,-0.544 0.067,-0.577 0.086,-0.608C0.106,-0.638 0.135,-0.662 0.175,-0.681C0.214,-0.699 0.265,-0.708 0.326,-0.708C0.367,-0.708 0.407,-0.703 0.447,-0.692C0.487,-0.681 0.522,-0.666 0.551,-0.646L0.518,-0.566C0.488,-0.586 0.456,-0.6 0.423,-0.609C0.389,-0.619 0.357,-0.623 0.326,-0.623C0.287,-0.623 0.254,-0.618 0.229,-0.608C0.204,-0.598 0.185,-0.585 0.174,-0.568C0.162,-0.551 0.156,-0.533 0.156,-0.512C0.156,-0.487 0.164,-0.468 0.179,-0.453C0.195,-0.438 0.215,-0.427 0.24,-0.418C0.265,-0.409 0.293,-0.402 0.323,-0.395C0.353,-0.387 0.383,-0.38 0.414,-0.371C0.444,-0.362 0.471,-0.351 0.496,-0.337C0.521,-0.323 0.542,-0.305 0.557,-0.281C0.572,-0.258 0.58,-0.228 0.58,-0.191C0.58,-0.156 0.57,-0.123 0.551,-0.092C0.531,-0.062 0.502,-0.038 0.462,-0.019C0.421,-0.001 0.371,0.008 0.309,0.008Z" style="fill:rgb(153,92,84);fill-rule:nonzero;"/>
                    </g>
                    <g transform="matrix(7.6319,0,0,7.6319,2363.49,462.707)">
                        <path d="M0.244,-0L0.244,-0.613L0.004,-0.613L0.004,-0.7L0.583,-0.7L0.583,-0.613L0.343,-0.613L0.343,-0L0.244,-0Z" style="fill:rgb(153,92,84);fill-rule:nonzero;"/>
                    </g>
                    <g transform="matrix(7.6319,0,0,7.6319,2368.75,462.707)">
                        <path d="M0.196,-0.398L0.556,-0.398L0.556,-0.313L0.196,-0.313L0.196,-0.398ZM0.205,-0.087L0.613,-0.087L0.613,-0L0.105,-0L0.105,-0.7L0.599,-0.7L0.599,-0.613L0.205,-0.613L0.205,-0.087ZM0.278,-0.757L0.414,-0.887L0.536,-0.887L0.368,-0.757L0.278,-0.757Z" style="fill:rgb(153,92,84);fill-rule:nonzero;"/>
                    </g>
                    <g transform="matrix(7.6319,0,0,7.6319,2374.64,462.707)">
                        <path d="M0.421,0.008C0.367,0.008 0.318,-0.001 0.272,-0.019C0.227,-0.037 0.187,-0.062 0.154,-0.094C0.12,-0.126 0.094,-0.164 0.076,-0.208C0.057,-0.251 0.048,-0.298 0.048,-0.35C0.048,-0.402 0.057,-0.449 0.076,-0.492C0.094,-0.536 0.12,-0.574 0.154,-0.606C0.188,-0.638 0.227,-0.663 0.272,-0.681C0.318,-0.699 0.367,-0.708 0.421,-0.708C0.474,-0.708 0.523,-0.699 0.569,-0.681C0.614,-0.664 0.653,-0.639 0.686,-0.606C0.72,-0.574 0.746,-0.536 0.764,-0.493C0.783,-0.449 0.792,-0.402 0.792,-0.35C0.792,-0.298 0.783,-0.251 0.764,-0.207C0.746,-0.164 0.72,-0.126 0.686,-0.094C0.653,-0.061 0.614,-0.036 0.569,-0.019C0.523,-0.001 0.474,0.008 0.421,0.008ZM0.421,-0.081C0.46,-0.081 0.495,-0.088 0.528,-0.101C0.561,-0.114 0.59,-0.133 0.614,-0.158C0.639,-0.182 0.658,-0.21 0.672,-0.243C0.685,-0.276 0.692,-0.311 0.692,-0.35C0.692,-0.389 0.685,-0.425 0.672,-0.457C0.658,-0.49 0.639,-0.518 0.615,-0.542C0.59,-0.567 0.561,-0.585 0.528,-0.599C0.496,-0.612 0.46,-0.619 0.421,-0.619C0.382,-0.619 0.345,-0.612 0.312,-0.599C0.279,-0.585 0.25,-0.567 0.226,-0.542C0.201,-0.518 0.182,-0.489 0.169,-0.457C0.155,-0.424 0.148,-0.389 0.148,-0.35C0.148,-0.312 0.155,-0.276 0.169,-0.243C0.182,-0.211 0.201,-0.182 0.226,-0.158C0.25,-0.133 0.279,-0.114 0.312,-0.101C0.345,-0.088 0.382,-0.081 0.421,-0.081Z" style="fill:rgb(153,92,84);fill-rule:nonzero;"/>
                    </g>
                    <g transform="matrix(7.6319,0,0,7.6319,2381.83,462.707)">
                        <path d="M0.105,-0L0.105,-0.7L0.378,-0.7C0.439,-0.7 0.491,-0.69 0.535,-0.671C0.578,-0.651 0.612,-0.623 0.635,-0.587C0.659,-0.55 0.67,-0.507 0.67,-0.456C0.67,-0.405 0.659,-0.362 0.635,-0.325C0.612,-0.289 0.578,-0.261 0.535,-0.241C0.491,-0.222 0.439,-0.212 0.378,-0.212L0.16,-0.212L0.205,-0.259L0.205,-0L0.105,-0ZM0.205,-0.249L0.16,-0.299L0.375,-0.299C0.439,-0.299 0.488,-0.312 0.521,-0.34C0.554,-0.367 0.57,-0.406 0.57,-0.456C0.57,-0.506 0.554,-0.545 0.521,-0.572C0.488,-0.6 0.439,-0.613 0.375,-0.613L0.16,-0.613L0.205,-0.663L0.205,-0.249Z" style="fill:rgb(153,92,84);fill-rule:nonzero;"/>
                    </g>
                    <g transform="matrix(7.6319,0,0,7.6319,2387.78,462.707)">
                        <path d="M-0.001,-0L0.316,-0.7L0.415,-0.7L0.733,-0L0.628,-0L0.345,-0.644L0.385,-0.644L0.102,-0L-0.001,-0ZM0.134,-0.175L0.161,-0.255L0.555,-0.255L0.584,-0.175L0.134,-0.175Z" style="fill:rgb(153,92,84);fill-rule:nonzero;"/>
                    </g>
                    <g transform="matrix(7.6319,0,0,7.6319,2393.88,462.707)">
                        <path d="M0.244,-0L0.244,-0.613L0.004,-0.613L0.004,-0.7L0.583,-0.7L0.583,-0.613L0.343,-0.613L0.343,-0L0.244,-0Z" style="fill:rgb(153,92,84);fill-rule:nonzero;"/>
                    </g>
                    <g transform="matrix(7.6319,0,0,7.6319,2399.15,462.707)">
                        <path d="M0.607,-0.7L0.707,-0.7L0.707,-0L0.607,-0L0.607,-0.7ZM0.205,-0L0.105,-0L0.105,-0.7L0.205,-0.7L0.205,-0ZM0.616,-0.312L0.195,-0.312L0.195,-0.399L0.616,-0.399L0.616,-0.312Z" style="fill:rgb(153,92,84);fill-rule:nonzero;"/>
                    </g>
                    <g transform="matrix(7.6319,0,0,7.6319,2406.13,462.707)">
                        <path d="M0.196,-0.398L0.556,-0.398L0.556,-0.313L0.196,-0.313L0.196,-0.398ZM0.205,-0.087L0.613,-0.087L0.613,-0L0.105,-0L0.105,-0.7L0.599,-0.7L0.599,-0.613L0.205,-0.613L0.205,-0.087Z" style="fill:rgb(153,92,84);fill-rule:nonzero;"/>
                    </g>
                    <g transform="matrix(7.6319,0,0,7.6319,2414.07,462.707)">
                        <path d="M0.105,-0L0.105,-0.7L0.4,-0.7C0.475,-0.7 0.541,-0.685 0.597,-0.656C0.654,-0.626 0.698,-0.585 0.73,-0.533C0.762,-0.481 0.778,-0.42 0.778,-0.35C0.778,-0.28 0.762,-0.219 0.73,-0.167C0.698,-0.115 0.654,-0.074 0.597,-0.044C0.541,-0.015 0.475,-0 0.4,-0L0.105,-0ZM0.205,-0.087L0.394,-0.087C0.452,-0.087 0.502,-0.098 0.544,-0.12C0.587,-0.142 0.619,-0.173 0.643,-0.212C0.666,-0.252 0.678,-0.298 0.678,-0.35C0.678,-0.403 0.666,-0.449 0.643,-0.488C0.619,-0.527 0.587,-0.558 0.544,-0.58C0.502,-0.602 0.452,-0.613 0.394,-0.613L0.205,-0.613L0.205,-0.087Z" style="fill:rgb(153,92,84);fill-rule:nonzero;"/>
                    </g>
                    <g transform="matrix(7.6319,0,0,7.6319,2421.01,462.707)">
                        <path d="M0.114,0.006C0.095,0.006 0.079,-0.001 0.066,-0.014C0.053,-0.027 0.046,-0.043 0.046,-0.063C0.046,-0.083 0.053,-0.099 0.066,-0.112C0.079,-0.125 0.095,-0.131 0.114,-0.131C0.132,-0.131 0.147,-0.125 0.161,-0.112C0.174,-0.099 0.18,-0.083 0.18,-0.063C0.18,-0.043 0.174,-0.027 0.161,-0.014C0.147,-0.001 0.132,0.006 0.114,0.006Z" style="fill:rgb(153,92,84);fill-rule:nonzero;"/>
                    </g>
                    <g transform="matrix(7.6319,0,0,7.6319,2423.37,462.707)">
                        <path d="M0.421,0.008C0.367,0.008 0.318,-0.001 0.272,-0.019C0.227,-0.037 0.187,-0.062 0.154,-0.094C0.12,-0.126 0.094,-0.164 0.076,-0.208C0.057,-0.251 0.048,-0.298 0.048,-0.35C0.048,-0.402 0.057,-0.449 0.076,-0.492C0.094,-0.536 0.12,-0.574 0.154,-0.606C0.188,-0.638 0.227,-0.663 0.272,-0.681C0.318,-0.699 0.367,-0.708 0.421,-0.708C0.474,-0.708 0.523,-0.699 0.569,-0.681C0.614,-0.664 0.653,-0.639 0.686,-0.606C0.72,-0.574 0.746,-0.536 0.764,-0.493C0.783,-0.449 0.792,-0.402 0.792,-0.35C0.792,-0.298 0.783,-0.251 0.764,-0.207C0.746,-0.164 0.72,-0.126 0.686,-0.094C0.653,-0.061 0.614,-0.036 0.569,-0.019C0.523,-0.001 0.474,0.008 0.421,0.008ZM0.421,-0.081C0.46,-0.081 0.495,-0.088 0.528,-0.101C0.561,-0.114 0.59,-0.133 0.614,-0.158C0.639,-0.182 0.658,-0.21 0.672,-0.243C0.685,-0.276 0.692,-0.311 0.692,-0.35C0.692,-0.389 0.685,-0.425 0.672,-0.457C0.658,-0.49 0.639,-0.518 0.615,-0.542C0.59,-0.567 0.561,-0.585 0.528,-0.599C0.496,-0.612 0.46,-0.619 0.421,-0.619C0.382,-0.619 0.345,-0.612 0.312,-0.599C0.279,-0.585 0.25,-0.567 0.226,-0.542C0.201,-0.518 0.182,-0.489 0.169,-0.457C0.155,-0.424 0.148,-0.389 0.148,-0.35C0.148,-0.312 0.155,-0.276 0.169,-0.243C0.182,-0.211 0.201,-0.182 0.226,-0.158C0.25,-0.133 0.279,-0.114 0.312,-0.101C0.345,-0.088 0.382,-0.081 0.421,-0.081Z" style="fill:rgb(153,92,84);fill-rule:nonzero;"/>
                    </g>
                </g>
            </g>
        </g>
    </g>
</svg>
