<?xml version="1.0" encoding="UTF-8"?>
<svg id="Layer_2" data-name="Layer 2" xmlns="http://www.w3.org/2000/svg" viewBox="0 0 123.64 48.96">
  <defs>
    <style>
      .cls-1, .cls-2 {
        fill: #995c54;
      }

      .cls-2 {
        fill-rule: evenodd;
      }
    </style>
  </defs>
  <g id="Logotype">
    <g>
      <g>
        <path class="cls-2" d="m19.99,29.92c0-.37-.3-.67-.67-.67s-.67.3-.67.67.3.67.67.67.67-.3.67-.67Z"/>
        <path class="cls-2" d="m4.98,12.47c6.03,0,7.43,3.75,14.34,3.75s8.31-3.75,14.34-3.75c.64.01,1.22.14,1.73.34-3.47-5.19-9.37-8.6-16.08-8.6S6.71,7.62,3.25,12.8c.51-.2,1.09-.32,1.73-.34Z"/>
        <path class="cls-2" d="m19.32,24.96c-.53,0-.96.43-.96.96s.43.96.96.96.96-.43.96-.96-.43-.96-.96-.96Z"/>
        <path class="cls-2" d="m19.32,19.89c-.74,0-1.35.6-1.35,1.35s.6,1.35,1.35,1.35,1.35-.6,1.35-1.35-.6-1.35-1.35-1.35Z"/>
        <path class="cls-2" d="m19.32,42.85s0,0,0,0c0,0,.01,0,.02,0,0,0-.01,0-.02,0Z"/>
        <path class="cls-2" d="m17.35,42.24c.16-1.25.26-2.35.28-3.66.49-9.05-4.3-23.65-12.69-23.57-2.57,0-3.1,3.59-1.15,4.23,1.2.39,1.05.85,1.16,1.92,0,.31-.27.54-.58.49-2.03-.34-3.26-1.53-3.76-2.94-.4,1.54-.61,3.16-.61,4.83,0,10.07,7.7,18.34,17.54,19.24-.18-.04-.22-.32-.19-.53ZM7.43,21.41c-.62-.12-1.17-.52-1.45-1.11h0c-.24-.55-.27-1.1-.33-1.74.1-1.72,3.63.37,4.18.66,1.9,1.17,3.56,2.91,4.46,5.22-1.84-1.86-4.31-2.54-6.85-3.03Z"/>
        <path class="cls-2" d="m38.03,18.69c-.5,1.41-1.72,2.6-3.76,2.94-.3.05-.58-.19-.58-.49.11-1.07-.04-1.53,1.16-1.92,1.95-.64,1.42-4.23-1.15-4.23-8.39-.08-13.18,14.52-12.69,23.57.02,1.32.12,2.42.28,3.66.03.22-.07.51-.26.53-.02,0-.03,0-.05,0,.02,0,.04,0,.06,0,9.86-.87,17.6-9.16,17.6-19.25,0-1.67-.22-3.29-.61-4.83Zm-5.36,1.61h0c-.28.59-.83.99-1.45,1.11-2.54.49-5.01,1.17-6.85,3.03.89-2.31,2.56-4.05,4.46-5.22.55-.29,4.07-2.38,4.18-.66-.06.65-.1,1.19-.33,1.74Z"/>
      </g>
      <g>
        <g>
          <path class="cls-1" d="m49.48,36.23c-2.84,0-4.72-1.08-5.25-1.44-.09-.07-.09-.21-.02-.27l.87-1.05c.07-.07.18-.05.23.02.34.5,1.67,2.5,4.21,2.5s3.67-1.88,3.67-3.14c0-3.37-8.54-2.27-8.54-7.4,0-2.31,2.18-3.82,4.95-3.82,2.5,0,3.99,1.21,4.35,1.6.07.07.07.16.02.23l-.8,1.1c-.07.07-.21.05-.23-.05-.25-.62-1.03-2.63-3.32-2.63-1.9,0-3.55,1.1-3.55,3.11,0,4.03,8.52,2.93,8.52,7.31,0,3.02-3.48,3.94-5.11,3.94Z"/>
          <path class="cls-1" d="m65.37,36.16h-1.56c-.07,0-.14-.07-.14-.14v-1.26c0-.07-.07-.09-.09-.05-.76.89-1.92,1.6-3.28,1.6-1.83,0-3.8-.69-3.8-2.5,0-2.89,3.71-4.03,7.1-4.1.05,0,.07-.02.07-.07v-.73c0-1.88-.71-3.05-2.63-3.05-2.13,0-2.38,1.92-2.79,2.84-.07.14-.23.18-.37.11l-.87-.53c-.11-.07-.14-.23-.07-.34.66-1.15,2.22-2.31,4.1-2.31,1.65,0,3.92.78,3.92,3.28v6.64c0,.3.25.34.41.44.05.05.05.11,0,.16Zm-1.69-6.14s-.02-.07-.07-.07c-2.89.09-5.68,1.19-5.68,3.82,0,1.33.96,2.31,2.38,2.31,1.76,0,2.98-1.67,3.37-3.41v-2.66Z"/>
          <path class="cls-1" d="m67.51,36.07s.02-.07.05-.09c.55-.21.62-.71.62-1.24v-7.44c0-.34-.23-.55-.39-.64-.07-.05-.07-.11,0-.16l1.54-.82c.07-.05.14,0,.14.09v2.82s.07.05.07.02c.41-.89,1.56-2.95,3.6-2.95,2.18,0,3.46,1.42,3.46,3.21v5.91c.02.53.09,1.01.62,1.21.05.02.05.05.05.09s-.02.09-.07.09h-2.45s-.09-.05-.09-.09.02-.07.05-.09c.57-.21.62-.73.62-1.24v-5.89c0-1.4-.98-2.84-2.36-2.84-1.92,0-3.11,2.57-3.44,3.37-.02.05-.04.11-.04.18v5.18c0,.53.07,1.03.62,1.24.02.02.05.05.05.09s-.02.09-.07.09h-2.45s-.09-.05-.09-.09Z"/>
          <path class="cls-1" d="m84.41,36.3c-2.84,0-5.15-2.11-5.15-5.31s2.31-5.34,5.15-5.34c1.67,0,3.16.73,4.1,1.97.07.11.07.25-.02.34l-.64.76c-.11.14-.34.11-.34-.07,0-1.17-1.47-2.77-3.09-2.77-2.06,0-3.73,2.02-3.73,5.11s1.99,4.9,4.05,4.9c1.21,0,2.75-.55,3.69-1.69.02-.02.05-.05.09-.05h.05s.05.05.02.07c-.92,1.33-2.45,2.08-4.17,2.08Z"/>
          <path class="cls-1" d="m100.26,36.07s-.02.09-.07.09h-2.45s-.09-.05-.09-.09.02-.07.05-.09c.55-.21.62-.71.62-1.24v-5.89c0-1.4-.98-2.84-2.36-2.84-1.99,0-3.23,2.79-3.48,3.46v5.27c0,.53.07,1.03.62,1.24.02.02.05.05.05.09s-.02.09-.07.09h-2.45s-.09-.05-.09-.09.02-.07.05-.09c.55-.21.62-.71.62-1.24v-8.57c0-2.61,2.93-4.49,3.87-4.49.07,0,.11.09.07.14l-.46.94c-.02.07-.07.18-.23.18h-.89c-1.12,0-1.08,1.65-1.08,2.08v3.73c.32-.73,1.49-3.11,3.66-3.11s3.46,1.42,3.46,3.21v5.91c0,.53.09,1.01.62,1.21.02.02.05.05.05.09Z"/>
          <path class="cls-1" d="m107.49,36.3c-2.84,0-5.15-2.11-5.15-5.31s2.31-5.34,5.15-5.34,4.19,2.45,4.31,4.31v.07c0,.07-.07.14-.14.14h-7.74c-.07,0-.11.05-.14.11-.02.23-.02.46-.02.71,0,3.09,1.99,4.9,4.05,4.9,1.21,0,2.75-.55,3.69-1.69.02-.02.05-.05.09-.05h.05s.05.05.02.07c-.92,1.33-2.45,2.08-4.17,2.08Zm-3.64-6.5c-.02.09.05.16.11.16h6.25c.09,0,.16-.09.16-.18-.07-1.33-.55-3.89-2.89-3.89-1.79,0-3.28,1.51-3.64,3.92Z"/>
          <path class="cls-1" d="m113.16,36.16c-.12,0-.18-.14-.12-.21.89-1.31,5.13-7.44,6.8-9.87.07-.09,0-.21-.11-.21h-4.81c-.69,0-1.28,1.47-1.28,1.47-.02.02-.05.02-.07.02h-.02s-.07-.02-.07-.05l.23-1.53c0-.07.07-.14.14-.14h7.6c.09,0,.16.14.11.23-2.06,2.95-4.92,7.1-6.83,9.85-.07.09,0,.21.11.21h5.41c.71,0,1.31-1.47,1.31-1.47,0-.02.02-.02.05-.02h.05s.05.02.05.05l-.23,1.53c0,.07-.05.14-.14.14h-8.18Z"/>
        </g>
        <g>
          <path class="cls-1" d="m44.17,18.19s.02-.07.05-.09c.55-.21.62-.71.62-1.24V5.23c0-.53-.07-1.03-.62-1.24-.02-.02-.05-.05-.05-.09s.05-.09.09-.09h2.61s.07.05.07.09-.02.07-.05.09c-.55.21-.62.71-.62,1.24v11.64c0,.53.07,1.03.62,1.24.02.02.05.05.05.09s-.02.09-.07.09h-2.61s-.09-.05-.09-.09Z"/>
          <path class="cls-1" d="m49.08,17.18l.55-.62s.11-.05.16.02c.25.37,1.31,1.63,3.14,1.63,1.92,0,2.68-1.35,2.68-2.27,0-2.45-6.18-1.56-6.18-5.38,0-1.67,1.56-2.79,3.57-2.79,1.81,0,2.89.89,3.18,1.17.05.07.05.14,0,.18l-.48.64s-.14.02-.16-.05c-.18-.44-.85-1.72-2.52-1.72-1.4,0-2.57.76-2.57,2.24,0,2.93,6.18,2.04,6.18,5.31,0,2.2-2.54,2.89-3.73,2.89-2.06,0-3.44-.8-3.83-1.08-.07-.05-.07-.14,0-.18Z"/>
          <path class="cls-1" d="m67.31,18.28h-1.56c-.07,0-.14-.07-.14-.14v-1.26c0-.07-.07-.09-.09-.05-.76.89-1.92,1.6-3.28,1.6-1.83,0-3.8-.69-3.8-2.5,0-2.89,3.71-4.03,7.1-4.1.05,0,.07-.02.07-.07v-.73c0-1.88-.71-3.05-2.63-3.05-2.13,0-2.38,1.92-2.79,2.84-.07.14-.23.18-.37.11l-.87-.53c-.11-.07-.14-.23-.07-.34.66-1.15,2.22-2.31,4.1-2.31,1.65,0,3.92.78,3.92,3.28v6.64c0,.3.25.34.41.44.05.05.05.11,0,.16Zm-1.69-6.14s-.02-.07-.07-.07c-2.89.09-5.68,1.19-5.68,3.82,0,1.33.96,2.31,2.38,2.31,1.76,0,2.98-1.67,3.37-3.41v-2.66Z"/>
          <path class="cls-1" d="m79.7,13.11c0,3.21-2.31,5.31-5.15,5.31s-5.15-2.11-5.15-5.31,2.31-5.34,5.15-5.34,5.15,2.11,5.15,5.34Zm-1.42,0c0-3.09-1.67-5.11-3.73-5.11s-3.73,2.02-3.73,5.11,1.67,5.08,3.73,5.08,3.73-1.99,3.73-5.08Z"/>
          <path class="cls-1" d="m81.65,18.14s.02-.07.05-.09c.55-.21.62-.71.62-1.24v-7.42c0-.37-.23-.57-.39-.66-.07-.05-.07-.11,0-.14l1.54-.85c.07-.02.14.02.14.09v1.88s.07.02.09,0c.5-.64,2.13-1.95,3.32-1.95s1.92.57,1.97.78c.02.05,0,.07-.02.11l-.67,1.37h-.04s-.39-1.6-1.67-1.6c-1.35,0-2.54,1.12-2.93,1.67-.02.02-.04.09-.04.14v6.6c0,.5.07,1.01.62,1.21.02.02.05.05.05.09s-.02.09-.07.09h-2.45s-.09-.05-.09-.09Z"/>
          <path class="cls-1" d="m99.23,18.28h-1.56c-.07,0-.14-.07-.14-.14v-1.26c0-.07-.07-.09-.09-.05-.76.89-1.92,1.6-3.28,1.6-1.83,0-3.8-.69-3.8-2.5,0-2.89,3.71-4.03,7.1-4.1.05,0,.07-.02.07-.07v-.73c0-1.88-.71-3.05-2.63-3.05-2.13,0-2.38,1.92-2.79,2.84-.07.14-.23.18-.37.11l-.87-.53c-.11-.07-.14-.23-.07-.34.66-1.15,2.22-2.31,4.1-2.31,1.65,0,3.92.78,3.92,3.28v6.64c0,.3.25.34.41.44.05.05.05.11,0,.16Zm-1.69-6.14s-.02-.07-.07-.07c-2.89.09-5.68,1.19-5.68,3.82,0,1.33.96,2.31,2.38,2.31,1.76,0,2.98-1.67,3.37-3.41v-2.66Z"/>
        </g>
        <g>
          <path class="cls-1" d="m46.81,47.03c-.4,0-.77-.07-1.12-.2-.34-.13-.64-.33-.89-.57-.25-.25-.45-.53-.59-.86-.14-.33-.21-.69-.21-1.08s.07-.75.21-1.08c.14-.33.34-.62.59-.86.25-.25.55-.44.89-.57.34-.13.71-.2,1.12-.2s.77.07,1.11.2c.34.13.64.32.89.57s.45.53.59.86c.14.33.21.69.21,1.08s-.07.75-.21,1.08c-.14.33-.34.62-.59.86-.25.24-.55.43-.89.57-.34.13-.71.2-1.11.2Zm0-.5c.32,0,.62-.05.89-.16.27-.11.51-.26.71-.47.2-.2.36-.44.47-.7.11-.27.17-.56.17-.88s-.06-.61-.17-.88c-.11-.27-.27-.5-.47-.7-.2-.2-.44-.36-.71-.47-.27-.11-.57-.16-.89-.16s-.62.05-.89.16c-.27.11-.51.26-.72.47-.2.2-.36.43-.47.7-.11.27-.17.56-.17.88s.06.61.17.88c.11.27.27.51.47.71.2.2.44.36.72.47s.57.16.89.16Z"/>
          <path class="cls-1" d="m53.1,47.03c-.4,0-.78-.06-1.14-.19-.36-.13-.64-.3-.84-.5l.22-.44c.19.18.44.34.76.46.32.12.65.19,1,.19s.61-.04.82-.13c.21-.08.37-.2.47-.34s.15-.3.15-.47c0-.21-.06-.38-.18-.5-.12-.13-.28-.23-.47-.3-.19-.07-.41-.14-.64-.19-.23-.06-.47-.12-.7-.18-.23-.06-.45-.15-.65-.26-.2-.11-.35-.25-.47-.42-.12-.18-.18-.41-.18-.69,0-.26.07-.51.21-.73.14-.22.35-.4.64-.53.29-.13.66-.2,1.11-.2.3,0,.6.04.89.13s.55.2.76.35l-.19.45c-.23-.15-.47-.26-.73-.34-.26-.07-.51-.11-.74-.11-.32,0-.59.04-.79.13-.21.09-.36.2-.46.35-.1.14-.15.31-.15.49,0,.21.06.38.18.5.12.13.28.23.47.3.2.07.41.13.64.19.23.06.47.12.7.18.23.07.45.15.64.26.2.1.35.24.47.42.12.17.18.4.18.68,0,.26-.07.5-.21.72s-.36.4-.65.53c-.29.13-.67.2-1.13.2Z"/>
          <path class="cls-1" d="m58.25,46.99v-4.85h-1.88v-.49h4.32v.49h-1.88v4.85h-.56Z"/>
          <path class="cls-1" d="m62.98,46.5h3.21v.49h-3.78v-5.34h3.66v.49h-3.1v4.37Zm-.06-2.47h2.82v.48h-2.82v-.48Zm.84-2.82l1.05-.95h.72l-1.24.95h-.53Z"/>
          <path class="cls-1" d="m70.5,47.03c-.4,0-.77-.07-1.12-.2-.34-.13-.64-.33-.89-.57-.25-.25-.45-.53-.59-.86-.14-.33-.21-.69-.21-1.08s.07-.75.21-1.08c.14-.33.34-.62.59-.86.25-.25.55-.44.89-.57.34-.13.71-.2,1.12-.2s.77.07,1.11.2c.34.13.64.32.89.57s.45.53.59.86c.14.33.21.69.21,1.08s-.07.75-.21,1.08c-.14.33-.34.62-.59.86-.25.24-.55.43-.89.57-.34.13-.71.2-1.11.2Zm0-.5c.32,0,.62-.05.89-.16.27-.11.51-.26.71-.47.2-.2.36-.44.47-.7.11-.27.17-.56.17-.88s-.06-.61-.17-.88c-.11-.27-.27-.5-.47-.7-.2-.2-.44-.36-.71-.47-.27-.11-.57-.16-.89-.16s-.62.05-.89.16c-.27.11-.51.26-.72.47-.2.2-.36.43-.47.7-.11.27-.17.56-.17.88s.06.61.17.88c.11.27.27.51.47.71.2.2.44.36.72.47s.57.16.89.16Z"/>
          <path class="cls-1" d="m75.35,46.99v-5.34h2c.45,0,.84.07,1.17.22.33.15.58.35.75.63.18.27.26.6.26.99s-.09.7-.26.97c-.18.27-.43.48-.75.63-.33.15-.71.22-1.17.22h-1.69l.25-.27v1.95h-.56Zm.56-1.91l-.25-.27h1.67c.53,0,.94-.12,1.22-.35.28-.23.42-.56.42-.98s-.14-.76-.42-.99-.68-.35-1.22-.35h-1.67l.25-.27v3.21Z"/>
          <path class="cls-1" d="m80.4,46.99l2.44-5.34h.56l2.44,5.34h-.6l-2.24-5.01h.23l-2.24,5.01h-.59Zm.96-1.43l.17-.46h3.11l.17.46h-3.44Z"/>
          <path class="cls-1" d="m88.11,46.99v-4.85h-1.88v-.49h4.32v.49h-1.88v4.85h-.56Z"/>
          <path class="cls-1" d="m92.84,46.99h-.56v-5.34h.56v5.34Zm3.4-2.47h-3.46v-.5h3.46v.5Zm-.05-2.88h.56v5.34h-.56v-5.34Z"/>
          <path class="cls-1" d="m99.71,46.5h3.21v.49h-3.78v-5.34h3.66v.49h-3.1v4.37Zm-.06-2.47h2.82v.48h-2.82v-.48Z"/>
          <path class="cls-1" d="m107.7,46.99v-5.34h2.17c.57,0,1.07.11,1.5.34s.76.54,1,.94c.24.4.36.86.36,1.39s-.12.99-.36,1.39c-.24.4-.57.72-1,.94-.43.23-.93.34-1.5.34h-2.17Zm.56-.49h1.58c.47,0,.88-.09,1.23-.28.35-.19.62-.44.81-.77s.29-.71.29-1.13-.1-.81-.29-1.14c-.19-.33-.46-.58-.81-.77-.35-.19-.76-.28-1.23-.28h-1.58v4.37Z"/>
          <path class="cls-1" d="m114.7,47.02c-.11,0-.21-.04-.29-.12-.08-.08-.12-.18-.12-.3s.04-.22.12-.3c.08-.08.17-.11.29-.11s.21.04.29.11c.08.08.12.18.12.3s-.04.22-.12.3c-.08.08-.17.12-.29.12Z"/>
          <path class="cls-1" d="m119.45,47.03c-.4,0-.77-.07-1.12-.2-.34-.13-.64-.33-.89-.57-.25-.25-.45-.53-.59-.86-.14-.33-.21-.69-.21-1.08s.07-.75.21-1.08c.14-.33.34-.62.59-.86.25-.25.55-.44.89-.57.34-.13.71-.2,1.12-.2s.77.07,1.11.2c.34.13.64.32.89.57s.45.53.59.86c.14.33.21.69.21,1.08s-.07.75-.21,1.08c-.14.33-.34.62-.59.86-.25.24-.55.43-.89.57-.34.13-.71.2-1.11.2Zm0-.5c.32,0,.62-.05.89-.16.27-.11.51-.26.71-.47.2-.2.36-.44.47-.7.11-.27.17-.56.17-.88s-.06-.61-.17-.88c-.11-.27-.27-.5-.47-.7-.2-.2-.44-.36-.71-.47-.27-.11-.57-.16-.89-.16s-.62.05-.89.16c-.27.11-.51.26-.72.47-.2.2-.36.43-.47.7-.11.27-.17.56-.17.88s.06.61.17.88c.11.27.27.51.47.71.2.2.44.36.72.47s.57.16.89.16Z"/>
        </g>
      </g>
    </g>
  </g>
</svg>