<?xml version="1.0" encoding="UTF-8"?>
<svg id="uuid-d8c3cbba-f489-4bdf-b8e4-444bf1b9eccc" data-name="Layer 2" xmlns="http://www.w3.org/2000/svg" viewBox="0 0 116.8 54.31">
  <defs>
    <style>
      .uuid-bba4585b-9999-4b03-b20a-f9acae574629 {
        fill-rule: evenodd;
      }

      .uuid-bba4585b-9999-4b03-b20a-f9acae574629, .uuid-b4480941-81f7-485c-ba70-d0cf3a0aa87a {
        fill: #995c54;
        stroke-width: 0px;
      }
    </style>
  </defs>
  <g id="uuid-cda119da-1dd4-4cfe-bbd9-6df63b1f8d6f" data-name="b">
    <g id="uuid-3965c00c-fd22-40b4-8126-ed09347d6fbd" data-name="c">
      <path class="uuid-bba4585b-9999-4b03-b20a-f9acae574629" d="M17.8,5.71C15.5,4.41.4-4.49,0,2.91c.3,2.8.4,5.1,1.4,7.4h0c1.2,2.5,3.5,4.2,6.2,4.7,10.8,2.1,21.4,5,29.3,12.9-3.8-9.9-10.9-17.3-19-22.3h0l-.1.1Z"/>
      <path class="uuid-bba4585b-9999-4b03-b20a-f9acae574629" d="M99,5.71c2.3-1.2,17.4-10.1,17.8-2.8-.3,2.8-.4,5.1-1.4,7.4h0c-1.2,2.5-3.6,4.2-6.2,4.7-10.8,2.1-21.4,5-29.2,12.9,3.8-9.9,10.9-17.3,19-22.3h0v.1Z"/>
      <circle class="uuid-b4480941-81f7-485c-ba70-d0cf3a0aa87a" cx="58.4" cy="14.31" r="5.7"/>
      <circle class="uuid-b4480941-81f7-485c-ba70-d0cf3a0aa87a" cx="58.4" cy="34.31" r="4.1"/>
      <circle class="uuid-b4480941-81f7-485c-ba70-d0cf3a0aa87a" cx="58.4" cy="51.41" r="2.9"/>
    </g>
  </g>
</svg>