<?xml version="1.0" encoding="UTF-8"?><svg id="Layer_2" xmlns="http://www.w3.org/2000/svg" viewBox="0 0 32 32"><defs><style>.cls-1{fill:#995c54;fill-rule:evenodd;stroke-width:0px;}</style></defs><g id="Logotype"><path class="cls-1" d="m16.55,21.3c0-.31-.25-.55-.55-.55s-.55.25-.55.55.25.55.55.55.55-.25.55-.55Z"/><path class="cls-1" d="m4.12,6.85c4.99,0,6.15,3.11,11.88,3.11s6.88-3.11,11.88-3.11c.53.01,1.01.11,1.44.28C26.44,2.83,21.55,0,16,0S5.56,2.83,2.69,7.12c.43-.16.9-.27,1.43-.28Z"/><path class="cls-1" d="m16,17.19c-.44,0-.8.36-.8.8s.36.8.8.8.8-.36.8-.8-.36-.8-.8-.8Z"/><path class="cls-1" d="m16,13c-.62,0-1.11.5-1.11,1.11s.5,1.11,1.11,1.11,1.11-.5,1.11-1.11-.5-1.11-1.11-1.11Z"/><path class="cls-1" d="m16,32s0,0,0,0c0,0,0,0,.01,0,0,0-.01,0-.02,0Z"/><path class="cls-1" d="m14.36,31.49c.13-1.03.21-1.94.23-3.03.4-7.49-3.56-19.58-10.51-19.52-2.13,0-2.56,2.97-.95,3.5.99.33.87.7.96,1.59,0,.25-.23.45-.48.41-1.68-.28-2.7-1.27-3.11-2.44-.33,1.28-.51,2.62-.51,4,0,8.34,6.38,15.18,14.52,15.93-.15-.03-.18-.26-.16-.44ZM6.15,14.25c-.51-.1-.97-.43-1.2-.92h0c-.2-.46-.22-.91-.27-1.44.09-1.42,3,.31,3.46.55,1.57.97,2.95,2.41,3.69,4.32-1.53-1.54-3.57-2.11-5.67-2.51Z"/><path class="cls-1" d="m31.49,12c-.41,1.17-1.43,2.15-3.11,2.44-.25.04-.48-.15-.48-.41.09-.89-.03-1.26.96-1.59,1.61-.53,1.18-3.5-.95-3.5-6.94-.06-10.91,12.02-10.51,19.52.02,1.09.1,2,.23,3.03.02.18-.06.42-.22.44-.01,0-.03,0-.04,0,.02,0,.03,0,.05,0,8.17-.72,14.57-7.58,14.57-15.94,0-1.38-.18-2.72-.51-4Zm-4.44,1.33h0c-.23.49-.69.82-1.2.92-2.1.4-4.15.97-5.67,2.51.74-1.91,2.12-3.35,3.69-4.32.46-.24,3.37-1.97,3.46-.55-.05.54-.08.98-.27,1.44Z"/></g></svg>