<?xml version="1.0" encoding="UTF-8"?>
<svg id="b" xmlns="http://www.w3.org/2000/svg" version="1.1" viewBox="0 0 116.8 54.2">
  <defs>
    <style>
      .cls-1, .cls-2 {
        fill: #997f54;
        stroke-width: 0px;
      }

      .cls-2 {
        fill-rule: evenodd;
      }
    </style>
  </defs>
  <g id="c">
    <path class="cls-2" d="M17.8,5.7C15.5,4.4.4-4.5,0,2.9c.3,2.8.4,5.1,1.4,7.4h0c1.2,2.5,3.5,4.2,6.2,4.7,10.8,2.1,21.4,5,29.3,12.9-3.8-9.9-10.9-17.3-19-22.3h0Z"/>
    <path class="cls-2" d="M99,5.7c2.3-1.2,17.4-10.1,17.8-2.8-.3,2.8-.4,5.1-1.4,7.4h0c-1.2,2.5-3.6,4.2-6.2,4.7-10.8,2.1-21.4,5-29.2,12.9,3.8-9.9,10.9-17.3,19-22.3h0Z"/>
    <circle class="cls-1" cx="58.4" cy="14.3" r="5.7"/>
    <circle class="cls-1" cx="58.4" cy="34.3" r="4.1"/>
    <circle class="cls-1" cx="58.4" cy="51.4" r="2.9"/>
  </g>
</svg>