<?xml version="1.0" encoding="UTF-8"?>
<svg xmlns="http://www.w3.org/2000/svg" version="1.1" viewBox="0 0 48 48">
  <defs>
    <style>
      .cls-1 {
        fill: none;
        stroke: #a86f58;
        stroke-linecap: round;
        stroke-linejoin: round;
        stroke-width: 4px;
      }

      .cls-2 {
        fill: #a86f58;
      }
    </style>
  </defs>
  <!-- Generator: Adobe Illustrator 28.6.0, SVG Export Plug-In . SVG Version: 1.2.0 Build 709)  -->
  <g>
    <g id="Layer_1">
      <g id="Layer_1-2" data-name="Layer_1">
        <path class="cls-1" d="M45.8,34.2v6.3c0,2.9-2.4,5.3-5.3,5.3H7.5c-2.9,0-5.3-2.4-5.3-5.3v-15.3"/>
        <path class="cls-1" d="M2.2,17.7V7.5c0-2.9,2.4-5.3,5.3-5.3h33c2.9,0,5.3,2.4,5.3,5.3v18.5"/>
        <circle class="cls-2" cx="12.8" cy="12.8" r="3.3"/>
        <path class="cls-2" d="M14.8,38.5h-4c-.8,0-1.3-.5-1.3-1.3v-17.2c0-.8.5-1.3,1.3-1.3h4c.8,0,1.3.5,1.3,1.3v17.2c0,.8-.5,1.3-1.3,1.3Z"/>
        <path class="cls-2" d="M30.6,18.7c-2,0-3.8.8-5.3,2v-.7c0-.8-.5-1.3-1.3-1.3h-4c-.8,0-1.3.5-1.3,1.3v17.2c0,.8.5,1.3,1.3,1.3h4c.8,0,1.3-.5,1.3-1.3v-9.9c0-1.8,1.5-3.3,3.3-3.3s3.3,1.5,3.3,3.3v9.9c0,.8.5,1.3,1.3,1.3h4c.8,0,1.3-.5,1.3-1.3v-10.6c0-4.4-3.6-7.9-7.9-7.9Z"/>
      </g>
    </g>
  </g>
</svg>