<?xml version="1.0" encoding="UTF-8"?>
<svg id="uuid-994b85cc-3b4e-4f23-9299-39e385fa12da" data-name="Layer_2" xmlns="http://www.w3.org/2000/svg" viewBox="0 0 8.92 11.42">
  <defs>
    <style>
      .uuid-8a005e6a-93f7-49df-90a4-c30b58c758e7 {
        fill: #9b5e55;
      }
    </style>
  </defs>
  <g id="uuid-2e461ff6-4b24-47b4-90bb-c4fa9c2d98e4" data-name="Layer_1">
    <g>
      <path class="uuid-8a005e6a-93f7-49df-90a4-c30b58c758e7" d="M6.57,6.64c.35.01.66.11.94.31.1.07.19.17.26.26.29.38.58.76.85,1.15.16.23.25.48.28.75.02.16-.02.31-.06.46-.08.29-.23.54-.45.75-.23.22-.45.45-.71.64-.26.2-.55.33-.87.41-.25.06-.5.06-.75,0-.31-.07-.6-.18-.89-.3-.29-.13-.56-.29-.83-.46-.48-.31-.89-.69-1.28-1.11-.37-.4-.7-.83-1.01-1.28-.16-.23-.31-.46-.45-.7-.37-.62-.71-1.25-.97-1.92-.09-.24-.19-.48-.26-.73-.07-.28.15-.51.4-.51.12,0,.22.05.3.15.06.08.1.16.13.26.14.42.31.82.5,1.22.2.42.43.82.67,1.21.29.47.61.93.96,1.36.3.36.62.7.99,1.01.33.27.67.51,1.05.69.24.11.49.21.75.27.43.09.81,0,1.15-.28.19-.15.36-.33.53-.5.11-.11.2-.22.23-.37.04-.18.03-.36-.07-.52-.09-.16-.21-.31-.32-.46-.16-.22-.32-.43-.48-.64-.18-.22-.41-.31-.68-.27-.1.01-.2.03-.3.02-.19-.01-.33-.14-.37-.33-.04-.21.06-.4.26-.47.16-.06.32-.09.5-.08Z"/>
      <path class="uuid-8a005e6a-93f7-49df-90a4-c30b58c758e7" d="M.85,2.8c0,.2.02.35.01.5,0,.09-.03.17-.1.24-.12.12-.26.19-.44.13-.18-.06-.27-.19-.3-.37-.03-.24-.03-.48,0-.72.03-.28.06-.55.14-.82.12-.44.35-.8.7-1.08.25-.2.53-.34.84-.43.24-.07.49-.15.74-.21.53-.12.99.04,1.4.38.17.14.28.33.37.53.19.4.38.81.55,1.23.1.23.13.47.11.71-.03.31-.16.58-.35.82-.09.11-.19.2-.29.29-.18.17-.36.34-.55.5-.05.05-.1.09-.15.14-.03.03-.05.07-.05.12-.01.12.01.24.05.36.11.32.27.62.44.92.21.34.45.66.73.95.17.18.14.38.03.52-.13.17-.36.21-.54.09-.13-.09-.23-.21-.33-.32-.37-.43-.66-.9-.91-1.41-.12-.26-.22-.52-.28-.8-.08-.38.02-.71.27-.99.18-.2.38-.38.59-.56.13-.11.25-.22.36-.35.16-.21.2-.44.11-.69-.07-.19-.15-.37-.25-.55-.1-.19-.18-.37-.27-.57-.04-.1-.09-.2-.17-.28-.17-.18-.39-.24-.63-.22-.23.02-.44.1-.66.16-.12.03-.23.07-.34.12-.4.2-.65.52-.74.96-.05.25-.07.5-.07.71Z"/>
    </g>
  </g>
</svg>