<?xml version="1.0" encoding="UTF-8"?><svg id="uuid-744873c2-adca-4776-8802-58d88abb0fa7" xmlns="http://www.w3.org/2000/svg" viewBox="0 0 12.45 14.64"><defs><style>.uuid-40084f1b-914c-44fd-ad53-0a3606f20fd0{fill:#FAF3F3;stroke-width:0px;}</style></defs><g id="uuid-f5643691-32b2-44cb-9ed1-aa28b1e535d5"><path class="uuid-40084f1b-914c-44fd-ad53-0a3606f20fd0" d="m0,6.11c0-.3.05-.64.12-.97.12-.63.33-1.22.62-1.79.06-.11.12-.22.24-.29.31-.2.65-.03.77.26.04.08.04.17.02.26-.06.19-.14.37-.23.55-.18.38-.31.77-.37,1.19-.06.37-.08.75-.07,1.13.02.34.07.68.15,1.02.19.85.6,1.58,1.17,2.24.62.71,1.28,1.39,1.91,2.1.28.32.56.64.85.95.19.2.38.4.57.6.03.03.06.05.09.08.15.14.34.15.53.11.11-.02.18-.1.25-.17.34-.33.67-.67.98-1.02.27-.3.54-.59.81-.89.08-.09.16-.17.26-.24.35-.21.75.04.81.4.02.13-.02.23-.08.34-.09.14-.21.25-.32.37-.54.61-1.11,1.19-1.68,1.77-.3.31-.67.49-1.1.54-.18.02-.35-.03-.52-.08-.32-.09-.58-.27-.8-.51-.65-.69-1.3-1.37-1.95-2.06-.27-.28-.52-.58-.76-.88-.11-.14-.23-.27-.35-.4-.32-.35-.62-.72-.87-1.11-.37-.59-.65-1.22-.83-1.9C.08,7.18-.01,6.67,0,6.11Z"/><path class="uuid-40084f1b-914c-44fd-ad53-0a3606f20fd0" d="m6.36,1.09c-.44,0-.88.02-1.31.13-.36.08-.71.2-1.04.36-.16.08-.32.16-.49.24-.05.03-.11.05-.17.07-.27.09-.49-.05-.61-.29-.07-.14-.07-.29,0-.44.04-.09.11-.14.18-.19.27-.17.56-.31.85-.44.5-.21,1.02-.37,1.56-.46.34-.06.69-.08,1.04-.06.35.02.7.05,1.05.12.29.06.58.14.86.24.4.14.76.32,1.13.52.19.1.35.23.52.36,1.06.81,1.79,1.85,2.2,3.12.13.38.22.78.27,1.18.04.31.05.62.03.93,0,.19-.01.39-.05.58-.1.51-.21,1.02-.41,1.51-.17.4-.37.79-.62,1.14-.13.19-.26.37-.41.54-.04.04-.08.08-.12.11-.14.11-.29.12-.45.06-.16-.06-.37-.29-.35-.52,0-.09.04-.18.09-.26.07-.12.16-.22.25-.33.4-.53.66-1.12.83-1.75.07-.26.1-.53.13-.79.03-.25.04-.51.03-.77-.01-.41-.06-.82-.18-1.21-.2-.63-.5-1.2-.88-1.73-.21-.29-.46-.54-.73-.77-.69-.59-1.48-.96-2.37-1.12-.27-.05-.55-.07-.82-.07Z"/><path class="uuid-40084f1b-914c-44fd-ad53-0a3606f20fd0" d="m6.16,8.86c-.47,0-.94,0-1.41,0-.13,0-.27,0-.4-.03-.37-.09-.59-.32-.66-.7-.02-.13-.03-.26-.03-.39,0-.57,0-1.14,0-1.7,0-.48.17-.89.55-1.21.49-.42,1.01-.82,1.54-1.19.09-.07.19-.12.29-.16.18-.08.34-.02.5.06.12.06.23.14.33.22.43.33.86.67,1.29,1,.38.29.57.68.61,1.15,0,.08,0,.16,0,.23,0,.57,0,1.13,0,1.7,0,.15-.02.3-.07.45-.1.31-.32.48-.64.55-.18.04-.36.03-.54.03-.46,0-.91,0-1.37,0,0,0,0,0,0,0Zm1.52-2.09c0-.32,0-.64,0-.96,0-.04-.01-.07-.05-.1-.05-.03-.1-.07-.15-.11-.39-.32-.81-.63-1.2-.96-.07-.06-.07-.06-.16,0-.19.13-.37.28-.55.41-.27.21-.52.44-.79.64-.03.02-.03.05-.03.09,0,.62,0,1.25,0,1.87,0,.1,0,.11.11.11,0,0,.02,0,.02,0,.24-.01.49,0,.73,0,.04,0,.05,0,.05-.05,0-.15,0-.31,0-.46,0-.13.02-.26.07-.39.09-.23.35-.38.58-.34.21.04.39.25.43.49.03.2.02.39.02.59,0,.17,0,.17.16.16.23,0,.46,0,.69,0,.05,0,.07,0,.07-.06,0-.31,0-.63,0-.94Z"/></g></svg>