<?xml version="1.0" encoding="UTF-8"?><svg id="uuid-9b0d054f-a619-4c2a-aef3-b879122f5877" xmlns="http://www.w3.org/2000/svg" viewBox="0 0 11.43 11.46"><defs><style>.uuid-d580ce88-c07b-48a5-8f42-3bf3e1bdc47b{fill:#FAF3F3;stroke-width:0px;}</style></defs><g id="uuid-e6717708-2dab-4572-88cb-ddbd368a9e91"><path class="uuid-d580ce88-c07b-48a5-8f42-3bf3e1bdc47b" d="m7.12,3.64c0-.07,0-.14,0-.21,0-.12.02-.25.09-.36.08-.14.22-.2.37-.19.17.01.29.11.35.26.03.09.05.19.05.29,0,1.01,0,2.02,0,3.03,0,.26.08.49.22.7.12.18.28.32.47.43.14.08.29.12.45.13.21.02.43,0,.62-.08.45-.2.72-.54.79-1.03.01-.09.02-.18.02-.27,0-.23,0-.47,0-.7,0-.64-.12-1.25-.37-1.83-.19-.44-.43-.85-.75-1.22-.21-.25-.45-.47-.7-.68-.4-.33-.85-.58-1.34-.77-.28-.11-.57-.19-.87-.23-.18-.02-.36-.03-.53-.05-.25-.03-.51,0-.76,0-.34.02-.68.08-1.01.18-.37.12-.73.27-1.07.48-.4.25-.75.54-1.06.9-.17.19-.32.38-.46.59-.3.45-.55.92-.68,1.45-.03.12-.08.23-.18.32-.28.22-.57.02-.65-.2-.03-.09-.02-.18,0-.26.11-.42.27-.83.48-1.21.22-.41.47-.8.78-1.14.39-.43.83-.81,1.32-1.11.33-.2.66-.39,1.03-.51.25-.09.52-.15.78-.21C4.88.06,5.25,0,5.63,0c.18,0,.37.02.55.03.23,0,.46.05.68.1.65.14,1.26.39,1.83.74,1.04.65,1.79,1.54,2.27,2.66.22.52.37,1.07.43,1.63.05.4.05.81.02,1.22-.01.19-.03.38-.07.56-.07.31-.22.59-.41.84-.19.25-.44.42-.71.56-.29.15-.59.22-.91.24-.31.02-.61-.06-.9-.19-.42-.19-.74-.49-.97-.88,0-.01-.01-.02-.02-.04-.01.01-.02.02-.03.03-.27.36-.59.65-.99.84-.28.14-.59.21-.9.24-.32.03-.63-.04-.93-.16-.13-.05-.25-.12-.36-.21-.1-.08-.16-.19-.16-.32,0-.23.25-.5.55-.38.04.02.08.04.11.05.23.12.47.16.73.16.53,0,.93-.27,1.24-.67.26-.33.4-.72.43-1.14.04-.52-.08-1.01-.36-1.45-.19-.3-.44-.53-.77-.67-.25-.1-.51-.12-.78-.09-.41.04-.72.25-.98.55-.29.35-.47.75-.52,1.21-.03.27-.03.55.05.82.04.12.07.24.12.36.11.27-.1.51-.33.55-.14.02-.24-.02-.33-.12-.08-.09-.13-.19-.17-.3-.1-.27-.16-.56-.2-.85-.05-.33.02-.64.1-.95.1-.41.28-.78.54-1.11.31-.38.67-.69,1.14-.86.34-.13.7-.17,1.07-.12.26.04.5.1.73.22.25.13.47.3.66.51,0,0,.01.01.02.02,0,0,0,0,.02,0Z"/><path class="uuid-d580ce88-c07b-48a5-8f42-3bf3e1bdc47b" d="m5.79,11.46c-.42,0-.76-.04-1.09-.1-.3-.05-.59-.14-.87-.23-.35-.12-.68-.29-1.01-.46-.33-.17-.62-.39-.89-.64-.2-.19-.39-.38-.57-.58-.27-.31-.51-.65-.7-1.02-.16-.3-.3-.62-.41-.94-.09-.28-.16-.57-.21-.86-.01-.08-.03-.15-.04-.23-.03-.23.11-.42.33-.46.19-.04.45.06.49.36.04.27.08.54.16.8.19.66.51,1.25.95,1.78.32.39.7.71,1.12.98.4.25.83.44,1.28.58.38.12.77.16,1.17.16.19,0,.39,0,.58,0,.35,0,.68-.07,1.01-.18.11-.03.21-.07.32-.11.31-.12.56.15.56.39,0,.15-.07.27-.2.34-.09.05-.19.08-.29.12-.33.12-.68.2-1.03.25-.25.03-.5.05-.66.06Z"/></g></svg>