<?xml version="1.0" encoding="UTF-8"?><svg id="uuid-2114152f-f34a-41e2-8183-91797bd1c19e" xmlns="http://www.w3.org/2000/svg" viewBox="0 0 19.28 19.27"><defs><style>.uuid-1e2fbb97-0ea5-461d-8e0e-ce8a5176d03c{fill:#a86f58;fill-rule:evenodd;stroke-width:0px;}</style></defs><g id="uuid-beb5218b-3950-402f-b34f-55da35fddc1c"><path class="uuid-1e2fbb97-0ea5-461d-8e0e-ce8a5176d03c" d="m1.22,4.95c.1-.18.21-.37.32-.54C3.26,1.75,6.24,0,9.64,0s6.38,1.75,8.1,4.41c.11.18.22.36.32.54-.36-.29-.84-.48-1.42-.49-2.94,0-3.62,1.83-7,1.83s-4.05-1.83-7-1.83c-.58.01-1.06.2-1.42.49Zm8.42,14.33s0,0,0,0c0,0,0,0,0,0,0,0,0,0-.01,0Zm-.96-.3c-.01.11,0,.25.1.26C3.85,18.8,0,14.67,0,9.64c0-.94.14-1.85.39-2.71.08.92.7,1.79,1.95,2,.15.02.28-.09.28-.24-.05-.52.02-.74-.57-.94-.95-.31-.69-2.06.56-2.06,4.09-.04,6.43,7.08,6.19,11.5,0,.64-.06,1.18-.14,1.79Zm-1.5-8.68c-.44-1.13-1.25-1.97-2.17-2.55-.27-.14-1.99-1.16-2.04-.32.03.32.05.58.16.85h0c.14.29.41.48.71.54,1.24.24,2.44.57,3.34,1.48Zm12.1-.66c0,5.03-3.86,9.16-8.78,9.6-.02,0-.04,0-.06,0,.01,0,.03,0,.04,0,.09-.01.14-.15.13-.26-.08-.61-.13-1.14-.14-1.79-.24-4.42,2.1-11.54,6.19-11.5,1.25,0,1.51,1.75.56,2.06-.58.19-.51.41-.57.94,0,.15.13.26.28.24,1.25-.21,1.88-1.08,1.95-2,.25.86.39,1.77.39,2.71Zm-2.96-2.21c-.05-.84-1.77.18-2.04.32-.93.57-1.74,1.42-2.17,2.55.9-.91,2.1-1.24,3.34-1.48.3-.06.57-.25.71-.54h0c.11-.27.13-.53.16-.85Zm-6.68.65c-.36,0-.66.29-.66.66s.29.66.66.66.66-.29.66-.66-.29-.66-.66-.66Zm0,2.47c-.26,0-.47.21-.47.47s.21.47.47.47.47-.21.47-.47-.21-.47-.47-.47Zm0,2.09c-.18,0-.33.15-.33.33s.15.33.33.33.33-.15.33-.33-.15-.33-.33-.33Z"/></g></svg>