<?xml version="1.0" encoding="UTF-8"?><svg id="uuid-df52bc60-8a2d-4791-bfc2-5e7a562e4d71" xmlns="http://www.w3.org/2000/svg" viewBox="0 0 11.44 11.45"><defs><style>.uuid-dc11ca01-bcea-4114-bb45-693441b1f201{fill:#FAF3F3;stroke-width:0px;}</style></defs><g id="uuid-32e0f025-2b4e-49ba-ba7a-8fd3a21e63cb"><path class="uuid-dc11ca01-bcea-4114-bb45-693441b1f201" d="m5.73,11.44c-.7,0-1.41,0-2.11,0-.72,0-1.4-.17-2.01-.57-.56-.36-.98-.85-1.27-1.46-.13-.27-.23-.55-.27-.85C.03,8.3,0,8.03,0,7.75c0-.47,0-.93,0-1.4,0-.11.02-.21.06-.31.07-.17.2-.27.38-.27.18,0,.31.09.4.25.05.1.07.2.07.31,0,.6,0,1.2,0,1.8,0,.44.13.84.38,1.2.14.2.29.4.48.56.31.27.66.46,1.06.56.2.05.4.08.6.08,1.56,0,3.12,0,4.68,0,.32,0,.63-.08.92-.22.78-.37,1.29-.98,1.48-1.83.03-.13.04-.26.04-.4,0-.45,0-.89,0-1.34,0-.09.02-.19.04-.28.05-.18.18-.28.36-.31.18-.02.32.06.41.21.07.1.09.22.09.34,0,.54.01,1.08-.03,1.63-.04.48-.21.9-.43,1.31-.15.27-.33.52-.54.74-.24.25-.51.46-.83.61-.34.17-.69.31-1.06.36-.24.03-.49.07-.73.07-.7,0-1.4,0-2.09,0Z"/><path class="uuid-dc11ca01-bcea-4114-bb45-693441b1f201" d="m5.74.9c-.77,0-1.53,0-2.3,0-.5,0-.96.14-1.37.41-.51.35-.87.81-1.07,1.4-.07.21-.1.43-.1.66,0,.28,0,.56,0,.85,0,.14-.02.28-.11.39-.1.13-.24.19-.4.17-.16-.02-.28-.11-.34-.27-.04-.11-.05-.22-.06-.33,0-.23,0-.45,0-.68,0-.74.21-1.42.65-2.02C1.12.85,1.73.42,2.47.16c.2-.07.41-.1.62-.12C3.38,0,3.67,0,3.96,0c1.28,0,2.55,0,3.83,0,.37,0,.74.04,1.09.14.45.13.86.34,1.23.63.4.32.71.71.94,1.17.24.47.36.98.37,1.5.01.43.01.86,0,1.29,0,.08-.02.17-.04.24-.06.2-.26.34-.47.31-.16-.02-.28-.11-.33-.27-.03-.11-.06-.22-.06-.33,0-.41,0-.82,0-1.23,0-.36-.08-.7-.23-1.03-.23-.51-.59-.9-1.07-1.18-.23-.13-.46-.25-.72-.29-.13-.02-.27-.04-.41-.04-.79,0-1.58,0-2.37,0Z"/><path class="uuid-dc11ca01-bcea-4114-bb45-693441b1f201" d="m2.71,5.7c.02-.65.21-1.24.59-1.76.37-.5.85-.85,1.43-1.06.29-.1.59-.16.9-.17.59,0,1.16.11,1.67.44.36.23.68.51.91.87.28.44.47.91.52,1.43.05.51-.04,1.01-.25,1.48-.19.44-.47.81-.84,1.11-.38.31-.82.51-1.3.6-.21.04-.43.07-.65.08-.21.01-.42-.02-.62-.07-.56-.13-1.04-.39-1.45-.79-.42-.41-.68-.91-.81-1.48-.05-.23-.09-.46-.09-.69Zm2.99,2.13c.05,0,.1,0,.16,0,.27,0,.54-.06.78-.19.29-.14.53-.34.73-.59.16-.2.29-.43.36-.67.09-.31.13-.62.08-.94-.02-.19-.06-.38-.13-.55-.31-.68-.84-1.08-1.55-1.23-.35-.08-.71-.06-1.06.06-.45.15-.8.44-1.07.82-.35.49-.44,1.05-.33,1.63.08.41.27.76.56,1.05.41.4.89.63,1.47.63Z"/><path class="uuid-dc11ca01-bcea-4114-bb45-693441b1f201" d="m8.73,2.13c.31,0,.61.28.6.59,0,.34-.28.59-.61.6-.31,0-.59-.28-.58-.59,0-.24.26-.6.59-.59Z"/></g></svg>