<?xml version="1.0" encoding="UTF-8"?><svg id="b" xmlns="http://www.w3.org/2000/svg" viewBox="0 0 122.25 43.22"><defs><style>.d,.e{fill:#faf6f5;stroke-width:0px;}.e{fill-rule:evenodd;}</style></defs><g id="c"><path class="e" d="m19.99,26.12c0-.37-.3-.67-.67-.67s-.67.3-.67.67.3.67.67.67.67-.3.67-.67Z"/><path class="e" d="m4.98,8.66c6.03,0,7.43,3.75,14.34,3.75s8.31-3.75,14.34-3.75c.64.01,1.22.14,1.73.34C31.93,3.81,26.03.39,19.32.39S6.71,3.81,3.25,9c.51-.2,1.09-.32,1.73-.34Z"/><path class="e" d="m19.32,21.15c-.53,0-.96.43-.96.96s.43.96.96.96.96-.43.96-.96-.43-.96-.96-.96Z"/><path class="e" d="m19.32,16.09c-.74,0-1.35.6-1.35,1.35s.6,1.35,1.35,1.35,1.35-.6,1.35-1.35-.6-1.35-1.35-1.35Z"/><path class="e" d="m19.32,39.04s0,0,0,0c0,0,.01,0,.02,0,0,0-.01,0-.02,0Z"/><path class="e" d="m17.35,38.43c.16-1.25.26-2.35.28-3.66.49-9.05-4.3-23.65-12.69-23.57-2.57,0-3.1,3.59-1.15,4.23,1.2.39,1.05.85,1.16,1.92,0,.31-.27.54-.58.49-2.03-.34-3.26-1.53-3.76-2.94-.4,1.54-.61,3.16-.61,4.83,0,10.07,7.7,18.34,17.54,19.24-.18-.04-.22-.32-.19-.53ZM7.43,17.6c-.62-.12-1.17-.52-1.45-1.11h0c-.24-.55-.27-1.1-.33-1.74.1-1.72,3.63.37,4.18.66,1.9,1.17,3.56,2.91,4.46,5.22-1.84-1.86-4.31-2.54-6.85-3.03Z"/><path class="e" d="m38.03,14.89c-.5,1.41-1.72,2.6-3.76,2.94-.3.05-.58-.19-.58-.49.11-1.07-.04-1.53,1.16-1.92,1.95-.64,1.42-4.23-1.15-4.23-8.39-.08-13.18,14.52-12.69,23.57.02,1.32.12,2.42.28,3.66.03.22-.07.51-.26.53-.02,0-.03,0-.05,0,.02,0,.04,0,.06,0,9.86-.87,17.6-9.16,17.6-19.25,0-1.67-.22-3.29-.61-4.83Zm-5.36,1.61h0c-.28.59-.83.99-1.45,1.11-2.54.49-5.01,1.17-6.85,3.03.89-2.31,2.56-4.05,4.46-5.22.55-.29,4.07-2.38,4.18-.66-.06.65-.1,1.19-.33,1.74Z"/><path class="d" d="m49.48,32.43c-2.84,0-4.72-1.08-5.25-1.44-.09-.07-.09-.21-.02-.27l.87-1.05c.07-.07.18-.05.23.02.34.5,1.67,2.5,4.21,2.5s3.67-1.88,3.67-3.14c0-3.37-8.54-2.27-8.54-7.4,0-2.31,2.18-3.82,4.95-3.82,2.5,0,3.99,1.21,4.35,1.6.07.07.07.16.02.23l-.8,1.1c-.07.07-.21.05-.23-.05-.25-.62-1.03-2.63-3.32-2.63-1.9,0-3.55,1.1-3.55,3.11,0,4.03,8.52,2.93,8.52,7.31,0,3.02-3.48,3.94-5.11,3.94Z"/><path class="d" d="m65.37,32.36h-1.56c-.07,0-.14-.07-.14-.14v-1.26c0-.07-.07-.09-.09-.05-.76.89-1.92,1.6-3.28,1.6-1.83,0-3.8-.69-3.8-2.5,0-2.89,3.71-4.03,7.1-4.1.05,0,.07-.02.07-.07v-.73c0-1.88-.71-3.05-2.63-3.05-2.13,0-2.38,1.92-2.79,2.84-.07.14-.23.18-.37.11l-.87-.53c-.11-.07-.14-.23-.07-.34.66-1.15,2.22-2.31,4.1-2.31,1.65,0,3.92.78,3.92,3.28v6.64c0,.3.25.34.41.44.05.05.05.11,0,.16Zm-1.69-6.14s-.02-.07-.07-.07c-2.89.09-5.68,1.19-5.68,3.82,0,1.33.96,2.31,2.38,2.31,1.76,0,2.98-1.67,3.37-3.41v-2.66Z"/><path class="d" d="m67.51,32.26s.02-.07.05-.09c.55-.21.62-.71.62-1.24v-7.44c0-.34-.23-.55-.39-.64-.07-.05-.07-.11,0-.16l1.54-.82c.07-.05.14,0,.14.09v2.82s.07.05.07.02c.41-.89,1.56-2.95,3.6-2.95,2.18,0,3.46,1.42,3.46,3.21v5.91c.02.53.09,1.01.62,1.21.05.02.05.05.05.09s-.02.09-.07.09h-2.45s-.09-.05-.09-.09.02-.07.05-.09c.57-.21.62-.73.62-1.24v-5.89c0-1.4-.98-2.84-2.36-2.84-1.92,0-3.11,2.57-3.44,3.37-.02.05-.04.11-.04.18v5.18c0,.53.07,1.03.62,1.24.02.02.05.05.05.09s-.02.09-.07.09h-2.45s-.09-.05-.09-.09Z"/><path class="d" d="m84.41,32.49c-2.84,0-5.15-2.11-5.15-5.31s2.31-5.34,5.15-5.34c1.67,0,3.16.73,4.1,1.97.07.11.07.25-.02.34l-.64.76c-.11.14-.34.11-.34-.07,0-1.17-1.47-2.77-3.09-2.77-2.06,0-3.73,2.02-3.73,5.11s1.99,4.9,4.05,4.9c1.21,0,2.75-.55,3.69-1.69.02-.02.05-.05.09-.05h.05s.05.05.02.07c-.92,1.33-2.45,2.08-4.17,2.08Z"/><path class="d" d="m100.26,32.26s-.02.09-.07.09h-2.45s-.09-.05-.09-.09.02-.07.05-.09c.55-.21.62-.71.62-1.24v-5.89c0-1.4-.98-2.84-2.36-2.84-1.99,0-3.23,2.79-3.48,3.46v5.27c0,.53.07,1.03.62,1.24.02.02.05.05.05.09s-.02.09-.07.09h-2.45s-.09-.05-.09-.09.02-.07.05-.09c.55-.21.62-.71.62-1.24v-8.57c0-2.61,2.93-4.49,3.87-4.49.07,0,.11.09.07.14l-.46.94c-.02.07-.07.18-.23.18h-.89c-1.12,0-1.08,1.65-1.08,2.08v3.73c.32-.73,1.49-3.11,3.66-3.11s3.46,1.42,3.46,3.21v5.91c0,.53.09,1.01.62,1.21.02.02.05.05.05.09Z"/><path class="d" d="m107.49,32.49c-2.84,0-5.15-2.11-5.15-5.31s2.31-5.34,5.15-5.34,4.19,2.45,4.31,4.31v.07c0,.07-.07.14-.14.14h-7.74c-.07,0-.11.05-.14.11-.02.23-.02.46-.02.71,0,3.09,1.99,4.9,4.05,4.9,1.21,0,2.75-.55,3.69-1.69.02-.02.05-.05.09-.05h.05s.05.05.02.07c-.92,1.33-2.45,2.08-4.17,2.08Zm-3.64-6.5c-.02.09.05.16.11.16h6.25c.09,0,.16-.09.16-.18-.07-1.33-.55-3.89-2.89-3.89-1.79,0-3.28,1.51-3.64,3.92Z"/><path class="d" d="m113.16,32.36c-.12,0-.18-.14-.12-.21.89-1.31,5.13-7.44,6.8-9.87.07-.09,0-.21-.11-.21h-4.81c-.69,0-1.28,1.47-1.28,1.47-.02.02-.05.02-.07.02h-.02s-.07-.02-.07-.05l.23-1.53c0-.07.07-.14.14-.14h7.6c.09,0,.16.14.11.23-2.06,2.95-4.92,7.1-6.83,9.85-.07.09,0,.21.11.21h5.41c.71,0,1.31-1.47,1.31-1.47,0-.02.02-.02.05-.02h.05s.05.02.05.05l-.23,1.53c0,.07-.05.14-.14.14h-8.18Z"/><path class="d" d="m44.17,14.38s.02-.07.05-.09c.55-.21.62-.71.62-1.24V1.42c0-.53-.07-1.03-.62-1.24-.02-.02-.05-.05-.05-.09s.05-.09.09-.09h2.61s.07.05.07.09-.02.07-.05.09c-.55.21-.62.71-.62,1.24v11.64c0,.53.07,1.03.62,1.24.02.02.05.05.05.09s-.02.09-.07.09h-2.61s-.09-.05-.09-.09Z"/><path class="d" d="m49.08,13.38l.55-.62s.11-.05.16.02c.25.37,1.31,1.63,3.14,1.63,1.92,0,2.68-1.35,2.68-2.27,0-2.45-6.18-1.56-6.18-5.38,0-1.67,1.56-2.79,3.57-2.79,1.81,0,2.89.89,3.18,1.17.05.07.05.14,0,.18l-.48.64s-.14.02-.16-.05c-.18-.44-.85-1.72-2.52-1.72-1.4,0-2.57.76-2.57,2.24,0,2.93,6.18,2.04,6.18,5.31,0,2.2-2.54,2.89-3.73,2.89-2.06,0-3.44-.8-3.83-1.08-.07-.05-.07-.14,0-.18Z"/><path class="d" d="m67.31,14.47h-1.56c-.07,0-.14-.07-.14-.14v-1.26c0-.07-.07-.09-.09-.05-.76.89-1.92,1.6-3.28,1.6-1.83,0-3.8-.69-3.8-2.5,0-2.89,3.71-4.03,7.1-4.1.05,0,.07-.02.07-.07v-.73c0-1.88-.71-3.05-2.63-3.05-2.13,0-2.38,1.92-2.79,2.84-.07.14-.23.18-.37.11l-.87-.53c-.11-.07-.14-.23-.07-.34.66-1.15,2.22-2.31,4.1-2.31,1.65,0,3.92.78,3.92,3.28v6.64c0,.3.25.34.41.44.05.05.05.11,0,.16Zm-1.69-6.14s-.02-.07-.07-.07c-2.89.09-5.68,1.19-5.68,3.82,0,1.33.96,2.31,2.38,2.31,1.76,0,2.98-1.67,3.37-3.41v-2.66Z"/><path class="d" d="m79.7,9.3c0,3.21-2.31,5.31-5.15,5.31s-5.15-2.11-5.15-5.31,2.31-5.34,5.15-5.34,5.15,2.11,5.15,5.34Zm-1.42,0c0-3.09-1.67-5.11-3.73-5.11s-3.73,2.02-3.73,5.11,1.67,5.08,3.73,5.08,3.73-1.99,3.73-5.08Z"/><path class="d" d="m81.65,14.34s.02-.07.05-.09c.55-.21.62-.71.62-1.24v-7.42c0-.37-.23-.57-.39-.66-.07-.05-.07-.11,0-.14l1.54-.85c.07-.02.14.02.14.09v1.88s.07.02.09,0c.5-.64,2.13-1.95,3.32-1.95s1.92.57,1.97.78c.02.05,0,.07-.02.11l-.67,1.37h-.05s-.39-1.6-1.67-1.6c-1.35,0-2.54,1.12-2.93,1.67-.02.02-.04.09-.04.14v6.6c0,.5.07,1.01.62,1.21.02.02.05.05.05.09s-.02.09-.07.09h-2.45s-.09-.05-.09-.09Z"/><path class="d" d="m99.24,14.47h-1.56c-.07,0-.14-.07-.14-.14v-1.26c0-.07-.07-.09-.09-.05-.76.89-1.92,1.6-3.28,1.6-1.83,0-3.8-.69-3.8-2.5,0-2.89,3.71-4.03,7.1-4.1.05,0,.07-.02.07-.07v-.73c0-1.88-.71-3.05-2.63-3.05-2.13,0-2.38,1.92-2.79,2.84-.07.14-.23.18-.37.11l-.87-.53c-.11-.07-.14-.23-.07-.34.66-1.15,2.22-2.31,4.1-2.31,1.65,0,3.92.78,3.92,3.28v6.64c0,.3.25.34.41.44.05.05.05.11,0,.16Zm-1.69-6.14s-.02-.07-.07-.07c-2.89.09-5.68,1.19-5.68,3.82,0,1.33.96,2.31,2.38,2.31,1.76,0,2.98-1.67,3.37-3.41v-2.66Z"/><path class="d" d="m48.81,38.56c-.25-.24-.55-.43-.89-.57-.34-.13-.71-.2-1.11-.2s-.78.07-1.12.2c-.34.14-.64.33-.89.57s-.45.53-.59.86c-.14.33-.21.69-.21,1.08s.07.75.21,1.08c.14.33.34.62.59.86.25.25.55.44.89.57.34.13.72.2,1.12.2s.77-.07,1.11-.2.64-.32.89-.57.45-.53.59-.86c.14-.33.21-.69.21-1.08s-.07-.75-.21-1.08c-.14-.33-.34-.62-.59-.86Zm.06,2.83c-.11.27-.27.5-.47.7-.2.2-.44.36-.71.47-.27.11-.57.16-.89.16s-.62-.05-.89-.16-.51-.26-.72-.47c-.2-.2-.36-.44-.47-.71-.11-.27-.17-.56-.17-.88s.06-.61.17-.88c.11-.27.27-.5.47-.7.2-.2.44-.36.72-.47.27-.11.57-.16.89-.16s.62.05.89.16c.27.11.51.26.71.47.2.2.36.44.47.7.11.27.17.56.17.88s-.06.61-.17.88Z"/><path class="d" d="m54.44,40.67c-.2-.1-.41-.19-.64-.26-.23-.07-.46-.13-.7-.18-.23-.06-.45-.12-.64-.19-.2-.07-.35-.17-.47-.3-.12-.13-.18-.3-.18-.5,0-.18.05-.35.15-.49s.25-.26.46-.35c.21-.09.47-.13.79-.13.24,0,.49.04.74.11.26.07.5.18.73.34l.19-.45c-.21-.15-.47-.26-.76-.35s-.59-.13-.89-.13c-.45,0-.82.07-1.11.2-.29.14-.5.31-.64.53-.14.22-.21.46-.21.73,0,.28.06.52.18.69.12.18.28.32.47.42.2.11.41.19.65.26.23.06.47.12.7.18.23.06.45.12.64.19s.35.17.47.3c.12.13.18.3.18.5,0,.17-.05.33-.15.47-.1.14-.25.26-.47.34-.21.08-.48.13-.82.13s-.69-.06-1-.19c-.32-.12-.57-.28-.76-.46l-.22.44c.2.2.48.37.84.5.36.13.74.19,1.14.19.46,0,.83-.07,1.13-.2s.51-.31.65-.53c.14-.22.21-.46.21-.72,0-.28-.06-.51-.18-.68-.12-.17-.28-.31-.47-.42Z"/><polygon class="d" points="56.37 38.32 58.25 38.32 58.25 43.18 58.81 43.18 58.81 38.32 60.69 38.32 60.69 37.84 56.37 37.84 56.37 38.32"/><polygon class="d" points="62.98 40.71 65.74 40.71 65.74 40.23 62.98 40.23 62.98 38.32 66.08 38.32 66.08 37.84 62.41 37.84 62.41 43.18 66.19 43.18 66.19 42.69 62.98 42.69 62.98 40.71"/><polygon class="d" points="65.53 36.46 64.8 36.46 63.76 37.4 64.29 37.4 65.53 36.46"/><path class="d" d="m72.51,38.56c-.25-.24-.55-.43-.89-.57-.34-.13-.71-.2-1.11-.2s-.78.07-1.12.2c-.34.14-.64.33-.89.57s-.45.53-.59.86c-.14.33-.21.69-.21,1.08s.07.75.21,1.08c.14.33.34.62.59.86.25.25.55.44.89.57.34.13.72.2,1.12.2s.77-.07,1.11-.2.64-.32.89-.57.45-.53.59-.86c.14-.33.21-.69.21-1.08s-.07-.75-.21-1.08c-.14-.33-.34-.62-.59-.86Zm.06,2.83c-.11.27-.27.5-.47.7-.2.2-.44.36-.71.47-.27.11-.57.16-.89.16s-.62-.05-.89-.16-.51-.26-.72-.47c-.2-.2-.36-.44-.47-.71-.11-.27-.17-.56-.17-.88s.06-.61.17-.88c.11-.27.27-.5.47-.7.2-.2.44-.36.72-.47.27-.11.57-.16.89-.16s.62.05.89.16c.27.11.51.26.71.47.2.2.36.44.47.7.11.27.17.56.17.88s-.06.61-.17.88Z"/><path class="d" d="m78.52,38.05c-.33-.15-.71-.22-1.17-.22h-2v5.34h.56v-1.69h1.43c.45,0,.84-.07,1.17-.22.33-.15.58-.36.75-.63s.26-.6.26-.97-.09-.72-.26-.99-.43-.48-.75-.63Zm.03,2.59c-.28.23-.68.35-1.22.35h-1.42v-2.67h1.42c.53,0,.94.12,1.22.35.28.23.42.56.42.99s-.14.75-.42.98Z"/><path class="d" d="m82.85,37.84l-2.44,5.34h.59l.64-1.43h2.98l.64,1.43h.6l-2.44-5.34h-.56Zm-1.01,3.46l1.29-2.87,1.29,2.87h-2.57Z"/><polygon class="d" points="86.23 38.32 88.11 38.32 88.11 43.18 88.68 43.18 88.68 38.32 90.55 38.32 90.55 37.84 86.23 37.84 86.23 38.32"/><polygon class="d" points="96.18 40.22 92.84 40.22 92.84 37.84 92.28 37.84 92.28 43.18 92.84 43.18 92.84 40.71 96.18 40.71 96.18 43.18 96.74 43.18 96.74 37.84 96.18 37.84 96.18 40.22"/><polygon class="d" points="99.71 40.71 102.47 40.71 102.47 40.23 99.71 40.23 99.71 38.32 102.81 38.32 102.81 37.84 99.15 37.84 99.15 43.18 102.92 43.18 102.92 42.69 99.71 42.69 99.71 40.71"/><path class="d" d="m111.38,38.18c-.43-.23-.93-.34-1.5-.34h-2.17v5.34h2.17c.57,0,1.07-.11,1.5-.34s.76-.54,1-.94c.24-.4.36-.86.36-1.39s-.12-.99-.36-1.39c-.24-.4-.57-.72-1-.94Zm.51,3.46c-.19.33-.46.59-.81.77-.35.19-.76.28-1.23.28h-1.58v-4.37h1.58c.47,0,.88.09,1.23.28.35.19.62.44.81.77s.29.7.29,1.14-.1.81-.29,1.13Z"/><path class="d" d="m114.7,42.39c-.11,0-.21.04-.29.11-.08.08-.12.18-.12.3s.04.22.12.3.17.12.29.12.21-.04.29-.12c.08-.08.12-.18.12-.3s-.04-.22-.12-.3c-.08-.08-.17-.11-.29-.11Z"/><path class="d" d="m122.04,39.42c-.14-.33-.34-.62-.59-.86-.25-.24-.55-.43-.89-.57-.34-.13-.71-.2-1.11-.2s-.78.07-1.12.2c-.34.14-.64.33-.89.57s-.45.53-.59.86c-.14.33-.21.69-.21,1.08s.07.75.21,1.08c.14.33.34.62.59.86.25.25.55.44.89.57.34.13.72.2,1.12.2s.77-.07,1.11-.2.64-.32.89-.57.45-.53.59-.86c.14-.33.21-.69.21-1.08s-.07-.75-.21-1.08Zm-.52,1.97c-.11.27-.27.5-.47.7-.2.2-.44.36-.71.47-.27.11-.57.16-.89.16s-.62-.05-.89-.16-.51-.26-.72-.47c-.2-.2-.36-.44-.47-.71-.11-.27-.17-.56-.17-.88s.06-.61.17-.88c.11-.27.27-.5.47-.7.2-.2.44-.36.72-.47.27-.11.57-.16.89-.16s.62.05.89.16c.27.11.51.26.71.47.2.2.36.44.47.7.11.27.17.56.17.88s-.06.61-.17.88Z"/></g></svg>