<?xml version="1.0" encoding="UTF-8"?><svg id="b" xmlns="http://www.w3.org/2000/svg" viewBox="0 0 81.7 36.59"><defs><style>.d,.e{fill:#faf6f5;stroke-width:0px;}.e{fill-rule:evenodd;}</style></defs><g id="c"><path class="d" d="m5.57,36.49c-2.97,0-4.94-1.13-5.49-1.51-.1-.07-.1-.22-.02-.29l.91-1.1c.07-.07.19-.05.24.02.36.53,1.75,2.61,4.41,2.61s3.84-1.97,3.84-3.29c0-3.53-8.95-2.37-8.95-7.75,0-2.42,2.28-4.01,5.18-4.01,2.61,0,4.17,1.27,4.56,1.68.07.07.07.17.02.24l-.84,1.15c-.07.07-.22.05-.24-.05-.26-.65-1.08-2.76-3.48-2.76-1.99,0-3.72,1.15-3.72,3.26,0,4.22,8.92,3.07,8.92,7.65,0,3.17-3.65,4.13-5.35,4.13Z"/><path class="d" d="m22.2,36.42h-1.63c-.07,0-.14-.07-.14-.14v-1.32c0-.07-.07-.1-.1-.05-.79.94-2.02,1.68-3.43,1.68-1.92,0-3.98-.72-3.98-2.61,0-3.02,3.89-4.22,7.44-4.29.05,0,.07-.02.07-.07v-.77c0-1.97-.74-3.19-2.76-3.19-2.23,0-2.49,2.01-2.93,2.97-.07.14-.24.19-.38.12l-.91-.55c-.12-.07-.14-.24-.07-.36.7-1.2,2.33-2.42,4.29-2.42,1.73,0,4.1.82,4.1,3.43v6.96c0,.31.26.36.43.46.05.05.05.12,0,.17Zm-1.77-6.43s-.02-.07-.07-.07c-3.02.1-5.95,1.25-5.95,4.01,0,1.39,1.01,2.42,2.49,2.42,1.85,0,3.12-1.75,3.53-3.57v-2.78Z"/><path class="d" d="m24.44,36.32s.02-.07.05-.1c.58-.22.65-.74.65-1.3v-7.8c0-.36-.24-.58-.41-.67-.07-.05-.07-.12,0-.17l1.61-.86c.07-.05.14,0,.14.1v2.95s.07.05.07.02c.43-.94,1.63-3.09,3.77-3.09,2.28,0,3.62,1.49,3.62,3.36v6.19c.02.55.1,1.06.65,1.27.05.02.05.05.05.1s-.02.1-.07.1h-2.57s-.1-.05-.1-.1.02-.07.05-.1c.6-.22.65-.77.65-1.3v-6.16c0-1.46-1.03-2.97-2.47-2.97-2.02,0-3.26,2.69-3.6,3.53-.02.05-.05.12-.05.19v5.42c0,.55.07,1.08.65,1.3.02.02.05.05.05.1s-.02.1-.07.1h-2.57s-.1-.05-.1-.1Z"/><path class="d" d="m42.14,36.56c-2.97,0-5.4-2.21-5.4-5.56s2.42-5.59,5.4-5.59c1.75,0,3.31.77,4.29,2.06.07.12.07.26-.02.36l-.67.79c-.12.14-.36.12-.36-.07,0-1.22-1.54-2.9-3.24-2.9-2.16,0-3.91,2.11-3.91,5.35s2.09,5.13,4.25,5.13c1.27,0,2.88-.58,3.86-1.78.02-.02.05-.05.1-.05h.05s.05.05.02.07c-.96,1.39-2.57,2.18-4.37,2.18Z"/><path class="d" d="m58.73,36.32s-.02.1-.07.1h-2.57s-.1-.05-.1-.1.02-.07.05-.1c.58-.22.65-.74.65-1.3v-6.16c0-1.46-1.03-2.97-2.47-2.97-2.09,0-3.38,2.93-3.65,3.62v5.52c0,.55.07,1.08.65,1.3.02.02.05.05.05.1s-.02.1-.07.1h-2.57s-.1-.05-.1-.1.02-.07.05-.1c.58-.22.65-.74.65-1.3v-8.97c0-2.73,3.07-4.7,4.05-4.7.07,0,.12.1.07.14l-.48.98c-.02.07-.07.19-.24.19h-.94c-1.18,0-1.13,1.73-1.13,2.18v3.91c.34-.77,1.56-3.26,3.84-3.26s3.62,1.49,3.62,3.36v6.19c0,.55.1,1.06.65,1.27.02.02.05.05.05.1Z"/><path class="d" d="m66.3,36.56c-2.97,0-5.4-2.21-5.4-5.56s2.42-5.59,5.4-5.59,4.39,2.57,4.51,4.51v.07c0,.07-.07.14-.14.14h-8.11c-.07,0-.12.05-.14.12-.02.24-.02.48-.02.74,0,3.24,2.09,5.13,4.25,5.13,1.27,0,2.88-.58,3.86-1.78.02-.02.05-.05.1-.05h.05s.05.05.02.07c-.96,1.39-2.57,2.18-4.37,2.18Zm-3.81-6.81c-.02.1.05.17.12.17h6.55c.1,0,.17-.1.17-.19-.07-1.39-.58-4.08-3.02-4.08-1.87,0-3.43,1.58-3.81,4.1Z"/><path class="d" d="m72.23,36.42c-.12,0-.19-.14-.12-.22.94-1.37,5.37-7.8,7.12-10.34.07-.1,0-.22-.12-.22h-5.04c-.72,0-1.34,1.54-1.34,1.54-.02.02-.05.02-.07.02h-.02s-.07-.02-.07-.05l.24-1.61c0-.07.07-.14.14-.14h7.96c.1,0,.17.14.12.24-2.16,3.09-5.16,7.44-7.15,10.31-.07.1,0,.22.12.22h5.66c.74,0,1.37-1.54,1.37-1.54,0-.02.02-.02.05-.02h.05s.05.02.05.05l-.24,1.61c0,.07-.05.14-.14.14h-8.56Z"/><path class="d" d="m0,17.59s.02-.07.05-.1c.58-.22.65-.74.65-1.3V4.01c0-.55-.07-1.08-.65-1.3-.02-.02-.05-.05-.05-.1s.05-.1.1-.1h2.73s.07.05.07.1-.02.07-.05.1c-.58.22-.65.74-.65,1.3v12.19c0,.55.07,1.08.65,1.3.02.02.05.05.05.1s-.02.1-.07.1H.1s-.1-.05-.1-.1Z"/><path class="d" d="m5.14,16.53l.58-.65s.12-.05.17.02c.26.38,1.37,1.7,3.29,1.7,2.02,0,2.81-1.42,2.81-2.37,0-2.57-6.48-1.63-6.48-5.64,0-1.75,1.63-2.93,3.74-2.93,1.89,0,3.02.94,3.33,1.22.05.07.05.14,0,.19l-.5.67s-.14.02-.17-.05c-.19-.46-.89-1.8-2.64-1.8-1.46,0-2.69.79-2.69,2.35,0,3.07,6.48,2.13,6.48,5.56,0,2.3-2.66,3.02-3.91,3.02-2.16,0-3.6-.84-4.01-1.13-.07-.05-.07-.14,0-.19Z"/><path class="d" d="m24.22,17.68h-1.63c-.07,0-.14-.07-.14-.14v-1.32c0-.07-.07-.1-.1-.05-.79.94-2.02,1.68-3.43,1.68-1.92,0-3.98-.72-3.98-2.61,0-3.02,3.89-4.22,7.44-4.29.05,0,.07-.02.07-.07v-.77c0-1.97-.74-3.19-2.76-3.19-2.23,0-2.49,2.01-2.93,2.97-.07.14-.24.19-.38.12l-.91-.55c-.12-.07-.14-.24-.07-.36.7-1.2,2.33-2.42,4.29-2.42,1.73,0,4.1.82,4.1,3.43v6.96c0,.31.26.36.43.46.05.05.05.12,0,.17Zm-1.77-6.43s-.02-.07-.07-.07c-3.02.1-5.95,1.25-5.95,4.01,0,1.39,1.01,2.42,2.49,2.42,1.85,0,3.12-1.75,3.53-3.57v-2.78Z"/><path class="d" d="m37.2,12.26c0,3.36-2.42,5.56-5.4,5.56s-5.4-2.21-5.4-5.56,2.42-5.59,5.4-5.59,5.4,2.21,5.4,5.59Zm-1.49,0c0-3.24-1.75-5.35-3.91-5.35s-3.91,2.11-3.91,5.35,1.75,5.33,3.91,5.33,3.91-2.09,3.91-5.33Z"/><path class="d" d="m39.23,17.54s.02-.07.05-.1c.58-.22.65-.74.65-1.3v-7.77c0-.38-.24-.6-.41-.7-.07-.05-.07-.12,0-.14l1.61-.89c.07-.02.14.02.14.1v1.97s.07.02.1,0c.53-.67,2.23-2.04,3.48-2.04s2.02.6,2.06.82c.02.05,0,.07-.02.12l-.7,1.44h-.05s-.41-1.68-1.75-1.68c-1.42,0-2.66,1.18-3.07,1.75-.02.02-.05.1-.05.14v6.91c0,.53.07,1.06.65,1.27.02.02.05.05.05.1s-.02.1-.07.1h-2.57s-.1-.05-.1-.1Z"/><path class="d" d="m57.65,17.68h-1.63c-.07,0-.14-.07-.14-.14v-1.32c0-.07-.07-.1-.1-.05-.79.94-2.02,1.68-3.43,1.68-1.92,0-3.98-.72-3.98-2.61,0-3.02,3.89-4.22,7.44-4.29.05,0,.07-.02.07-.07v-.77c0-1.97-.74-3.19-2.76-3.19-2.23,0-2.49,2.01-2.93,2.97-.07.14-.24.19-.38.12l-.91-.55c-.12-.07-.14-.24-.07-.36.7-1.2,2.33-2.42,4.29-2.42,1.73,0,4.1.82,4.1,3.43v6.96c0,.31.26.36.43.46.05.05.05.12,0,.17Zm-1.77-6.43s-.02-.07-.07-.07c-3.02.1-5.95,1.25-5.95,4.01,0,1.39,1.01,2.42,2.49,2.42,1.85,0,3.12-1.75,3.53-3.57v-2.78Z"/><path class="e" d="m63.64,4.95c.1-.18.21-.37.32-.54,1.72-2.65,4.7-4.41,8.1-4.41s6.38,1.75,8.1,4.41c.11.18.22.36.32.54-.36-.29-.84-.48-1.42-.49-2.94,0-3.62,1.83-7,1.83s-4.05-1.83-7-1.83c-.58.01-1.06.2-1.42.49Zm8.42,14.33s0,0,0,0c0,0,0,0,0,0,0,0,0,0-.01,0Zm-.96-.3c-.01.11,0,.25.1.26-4.92-.44-8.77-4.57-8.77-9.6,0-.94.14-1.85.39-2.71.08.92.7,1.79,1.95,2,.15.02.28-.09.28-.24-.05-.52.02-.74-.57-.94-.95-.31-.69-2.06.56-2.06,4.09-.04,6.43,7.08,6.19,11.5,0,.64-.06,1.18-.14,1.79Zm-1.5-8.68c-.44-1.13-1.25-1.97-2.17-2.55-.27-.14-1.99-1.16-2.04-.32.03.32.05.58.16.85h0c.14.29.41.48.71.54,1.24.24,2.44.57,3.34,1.48Zm12.1-.66c0,5.03-3.86,9.16-8.78,9.6-.02,0-.04,0-.06,0,.01,0,.03,0,.04,0,.09-.01.14-.15.13-.26-.08-.61-.13-1.14-.14-1.79-.24-4.42,2.1-11.54,6.19-11.5,1.25,0,1.51,1.75.56,2.06-.58.19-.51.41-.57.94,0,.15.13.26.28.24,1.25-.21,1.88-1.08,1.95-2,.25.86.39,1.77.39,2.71Zm-2.96-2.21c-.05-.84-1.77.18-2.04.32-.93.57-1.74,1.42-2.17,2.55.9-.91,2.1-1.24,3.34-1.48.3-.06.57-.25.71-.54h0c.11-.27.13-.53.16-.85Zm-6.68.65c-.36,0-.66.29-.66.66s.29.66.66.66.66-.29.66-.66-.29-.66-.66-.66Zm0,2.47c-.26,0-.47.21-.47.47s.21.47.47.47.47-.21.47-.47-.21-.47-.47-.47Zm0,2.09c-.18,0-.33.15-.33.33s.15.33.33.33.33-.15.33-.33-.15-.33-.33-.33Z"/></g></svg>