<?xml version="1.0" encoding="utf-8"?>
<!-- Generator: Adobe Illustrator 27.9.0, SVG Export Plug-In . SVG Version: 6.00 Build 0)  -->
<svg version="1.1" id="uuid-03a0fa74-0c09-421a-b180-f568fce6ee6a"
	 xmlns="http://www.w3.org/2000/svg" xmlns:xlink="http://www.w3.org/1999/xlink" x="0px" y="0px" viewBox="0 0 8.9 11.4"
	 style="enable-background:new 0 0 8.9 11.4;" xml:space="preserve">
<style type="text/css">
	.st0{fill:#FAF3F3;}
</style>
<g id="uuid-c1e94f01-b8fc-4b55-9e38-8c702859aaa7">
	<path class="st0" d="M6.6,6.6c0.3,0,0.7,0.1,0.9,0.3C7.6,7,7.7,7.1,7.8,7.2C8.1,7.6,8.4,8,8.6,8.4c0.2,0.2,0.2,0.5,0.3,0.8
		c0,0.2,0,0.3-0.1,0.5c-0.1,0.3-0.2,0.5-0.4,0.8c-0.2,0.2-0.4,0.4-0.7,0.6c-0.3,0.2-0.6,0.3-0.9,0.4c-0.2,0.1-0.5,0.1-0.8,0
		c-0.3-0.1-0.6-0.2-0.9-0.3c-0.3-0.1-0.6-0.3-0.8-0.5c-0.5-0.3-0.9-0.7-1.3-1.1c-0.4-0.4-0.7-0.8-1-1.3C1.9,8,1.7,7.8,1.6,7.5
		c-0.4-0.6-0.7-1.2-1-1.9C0.5,5.4,0.4,5.1,0.4,4.9C0.3,4.6,0.5,4.4,0.8,4.4c0.1,0,0.2,0.1,0.3,0.2c0.1,0.1,0.1,0.2,0.1,0.3
		C1.3,5.2,1.5,5.6,1.7,6c0.2,0.4,0.4,0.8,0.7,1.2c0.3,0.5,0.6,0.9,1,1.4c0.3,0.4,0.6,0.7,1,1c0.3,0.3,0.7,0.5,1.1,0.7
		c0.2,0.1,0.5,0.2,0.8,0.3c0.4,0.1,0.8,0,1.2-0.3c0.2-0.1,0.4-0.3,0.5-0.5C7.9,9.6,8,9.5,8,9.4c0-0.2,0-0.4-0.1-0.5
		C7.9,8.7,7.8,8.6,7.6,8.4C7.5,8.2,7.3,8,7.2,7.8C7,7.5,6.8,7.5,6.5,7.5c-0.1,0-0.2,0-0.3,0C6,7.5,5.9,7.4,5.8,7.2
		c0-0.2,0.1-0.4,0.3-0.5C6.2,6.7,6.4,6.6,6.6,6.6L6.6,6.6z"/>
	<path class="st0" d="M0.9,2.8c0,0.2,0,0.3,0,0.5c0,0.1,0,0.2-0.1,0.2C0.6,3.7,0.5,3.7,0.3,3.7S0,3.5,0,3.3c0-0.2,0-0.5,0-0.7
		C0,2.3,0.1,2,0.2,1.8C0.3,1.3,0.5,1,0.9,0.7c0.2-0.2,0.5-0.3,0.8-0.4C1.9,0.2,2.2,0.1,2.4,0c0.5-0.1,1,0,1.4,0.4
		C4,0.6,4.1,0.8,4.2,1c0.2,0.4,0.4,0.8,0.6,1.2c0.1,0.2,0.1,0.5,0.1,0.7c0,0.3-0.2,0.6-0.3,0.8C4.4,3.8,4.3,3.9,4.2,4
		C4.1,4.2,3.9,4.3,3.7,4.5c0,0.1-0.1,0.1-0.2,0.1c0,0,0,0.1,0,0.1c0,0.1,0,0.2,0,0.4C3.6,5.4,3.8,5.7,4,6C4.2,6.4,4.4,6.7,4.7,7
		c0.2,0.2,0.1,0.4,0,0.5C4.6,7.7,4.4,7.7,4.2,7.6C4.1,7.5,4,7.4,3.9,7.3C3.5,6.9,3.2,6.4,3,5.9C2.8,5.6,2.7,5.4,2.7,5.1
		c-0.1-0.4,0-0.7,0.3-1c0.2-0.2,0.4-0.4,0.6-0.6c0.1-0.1,0.2-0.2,0.4-0.3C4.1,3,4.1,2.7,4,2.5C3.9,2.3,3.9,2.1,3.8,1.9
		C3.7,1.7,3.6,1.6,3.5,1.4c0-0.1-0.1-0.2-0.2-0.3C3.1,0.9,2.9,0.8,2.7,0.9C2.5,0.9,2.2,1,2,1c-0.1,0-0.2,0.1-0.3,0.1
		C1.3,1.3,1,1.7,0.9,2.1C0.9,2.4,0.9,2.6,0.9,2.8L0.9,2.8z"/>
</g>
</svg>
